<?xml version="1.0" encoding="utf-8"?>
<!-- Generator: Adobe Illustrator 25.3.1, SVG Export Plug-In . SVG Version: 6.00 Build 0)  -->
<svg version="1.1" id="Layer_1" xmlns="http://www.w3.org/2000/svg" xmlns:xlink="http://www.w3.org/1999/xlink" x="0px" y="0px"
	 viewBox="0 0 440.7 208.1" style="enable-background:new 0 0 440.7 208.1;" xml:space="preserve">
<style type="text/css">
	.st0{fill:#20419A;}
	.st1{fill:#00AEEF;}
</style>
<g>
	<path class="st0" d="M81.2,30.2h29.6c2,0,4.2,1.5,4.9,3.4L167,174c0.7,1.9-0.4,3.4-2.4,3.4h-29.2c-2,0-4.1-1.5-4.8-3.4l-10.1-30.3
		H68.7L58.6,174c-0.6,1.9-2.8,3.4-4.8,3.4H26.2c-2,0-3-1.5-2.4-3.4L76.3,33.6C77,31.7,79.2,30.2,81.2,30.2 M112.6,117.8L94.8,62.2
		l-18.3,55.6H112.6z"/>
	<path class="st0" d="M306.8,30.2h51.6c9.1,0,16.8,1,23.2,3.2c6.3,2.1,11.5,5,15.5,8.5c4,3.6,6.8,7.6,8.6,12.3
		c1.8,4.6,2.6,9.5,2.6,14.4c0,4.7-0.8,8.9-2.5,12.5c-1.7,3.6-3.7,6.7-6,9.3c-2.3,2.6-4.7,4.6-7.3,6.1c-2.6,1.5-4.8,2.4-6.5,2.9
		c2.7,0.6,5.7,1.7,9.2,3.2c3.4,1.6,6.7,3.8,9.8,6.7c3.1,2.9,5.7,6.5,7.8,10.8c2.1,4.3,3.2,9.4,3.2,15.3c0,7.7-1.4,14.2-4.1,19.4
		c-2.7,5.3-6.5,9.6-11.5,13c-4.9,3.4-11,5.9-18.1,7.4c-7.1,1.5-15.1,2.3-24,2.3h-51.6c-2,0-3.6-1.6-3.6-3.6v-140
		C303.1,31.8,304.8,30.2,306.8,30.2 M355.2,89.1c2.5,0,5-0.3,7.4-0.9c2.4-0.6,4.6-1.5,6.4-2.7c1.8-1.3,3.4-3,4.5-5.1
		c1.2-2.1,1.8-4.8,1.8-7.8c0-3.3-0.6-5.9-1.8-8.1c-1.2-2.1-2.7-3.8-4.7-5.1c-1.9-1.3-4.1-2.1-6.5-2.7c-2.4-0.5-4.8-0.8-7.2-0.8
		h-19.6v33.1H355.2z M357.2,151.8c2.4,0,5-0.2,7.9-0.6c3-0.4,5.7-1.2,8.2-2.5c2.5-1.3,4.6-3.2,6.3-5.7c1.7-2.5,2.5-5.9,2.5-10.4
		c0-4-0.8-7.2-2.4-9.7c-1.6-2.5-3.7-4.4-6.2-5.8c-2.5-1.4-5.2-2.3-8.2-2.9c-2.9-0.5-5.7-0.8-8.2-0.8h-21.6v38.4H357.2z"/>
	<path class="st1" d="M241.7,130.2c-14.5,0-26.3-11.8-26.3-26.3c0-14.5,11.8-26.3,26.3-26.3c14.5,0,26.3,11.8,26.3,26.3
		C267.9,118.4,256.2,130.2,241.7,130.2"/>
	<path class="st0" d="M270.8,138.3c-7.9,7.6-18.5,12.2-30.2,12.2c-24.8,0-44.8-20.9-44.8-46.6c0-25.7,20.1-46.6,44.8-46.6
		c11.2,0,21.5,4.3,29.4,11.4c1.5,1.3,3.7,1.4,5.1,0l15.9-15.9c1.4-1.4,1.4-3.7,0-5.1c-13.8-13.1-32.3-21.2-52.8-21.2
		c-42.4,0-76.9,34.6-76.9,77.4c0,42.7,34.4,77.4,76.9,77.4c20.9,0,39.7-8.4,53.6-22c1.4-1.4,1.4-3.7,0-5.2l-15.9-15.9
		C274.5,136.8,272.3,136.9,270.8,138.3"/>
</g>
</svg>
