<?xml version="1.0" encoding="utf-8"?>
<!-- Generator: Adobe Illustrator 25.3.1, SVG Export Plug-In . SVG Version: 6.00 Build 0)  -->
<svg version="1.1" id="Layer_1" xmlns="http://www.w3.org/2000/svg" xmlns:xlink="http://www.w3.org/1999/xlink" x="0px" y="0px"
	 viewBox="0 0 89.2 87.8" style="enable-background:new 0 0 89.2 87.8;" xml:space="preserve">
<style type="text/css">
	.st0{fill-rule:evenodd;clip-rule:evenodd;fill:#FFFFFF;stroke:#BBBDBF;stroke-width:0.216;stroke-miterlimit:2.6131;}
	.st1{fill-rule:evenodd;clip-rule:evenodd;fill:#006940;}
	.st2{fill-rule:evenodd;clip-rule:evenodd;fill:#053F2B;}
	.st3{fill-rule:evenodd;clip-rule:evenodd;fill:#AE2638;}
	.st4{fill-rule:evenodd;clip-rule:evenodd;fill:#FFFFFF;}
	.st5{fill-rule:evenodd;clip-rule:evenodd;fill:#FFDD00;}
	.st6{fill:none;stroke:#9A212B;stroke-width:0.2931;stroke-miterlimit:2.6131;}
</style>
<path id="XMLID_101_" class="st0" d="M86.9,6c0-2.2-1.8-4-4-4H6.7c-2.2,0-4,1.8-4,4v76.2c0,2.2,1.8,4,4,4h76.2c2.2,0,4-1.8,4-4
	L86.9,6L86.9,6z"/>
<polygon id="XMLID_100_" class="st1" points="6.2,8.8 9.1,7.6 9.1,7.5 6.2,7.5 6.2,6.9 10.2,6.9 10.2,7.6 7.5,8.8 10.2,8.8 
	10.2,9.4 6.2,9.4 "/>
<path id="XMLID_99_" class="st1" d="M6.2,12.4l0.5-0.1c-0.2-0.2-0.6-0.4-0.6-0.9c0-0.7,0.7-1.4,2.1-1.4c1.1,0,2.1,0.5,2.1,1.5
	c0,0.9-0.8,1.3-1.4,1.3v-0.6c0.2,0,0.7-0.2,0.7-0.6s-0.4-0.8-1.4-0.8c-1.1,0-1.4,0.4-1.4,0.8c0,0.1,0.1,0.6,0.9,0.8v-0.7h0.7v1.2
	H6.2V12.4z"/>
<path class="st1" d="M6.2,15.4l0.9-0.2v-1.1L6.2,14v-0.7l4,1.1V15l-4,1.1V15.4L6.2,15.4z M10.7,14.9L10.7,14.9l0.3-0.2l-0.3-0.2
	v-0.4l0.6,0.4v0.4l-0.6,0.4V14.9L10.7,14.9z M9.3,14.7L9.3,14.7L9.3,14.7l-1.5-0.4v0.8L9.3,14.7z"/>
<polygon id="XMLID_95_" class="st1" points="6.2,18.4 9.1,17.2 6.2,17.2 6.2,16.6 10.2,16.6 10.2,17.2 7.5,18.4 10.2,18.4 10.2,19 
	6.2,19 "/>
<polygon id="XMLID_94_" class="st1" points="6.2,22.9 8,22.9 8,21.8 6.2,21.8 6.2,21.2 10.2,21.2 10.2,21.8 8.7,21.8 8.7,22.9 
	10.2,22.9 10.2,23.6 6.2,23.6 "/>
<path class="st1" d="M6.2,26.3l0.9-0.2V25l-0.9-0.2v-0.7l4,1.1V26l-4,1V26.3L6.2,26.3z M10.7,25.4L10.7,25.4l0.6-0.5v0.5l-0.6,0.3
	V25.4L10.7,25.4z M9.3,25.6L9.3,25.6l-1.6-0.4V26L9.3,25.6z"/>
<polygon id="XMLID_90_" class="st1" points="6.2,29.4 9.1,28.1 6.2,28.1 6.2,27.6 10.2,27.6 10.2,28.2 7.5,29.4 10.2,29.4 10.2,30 
	6.2,30 "/>
<path id="XMLID_89_" class="st1" d="M6.2,33l0.5-0.1c-0.2-0.2-0.6-0.4-0.6-0.9c0-0.7,0.7-1.3,2.1-1.3c1.1,0,2.1,0.4,2.1,1.4
	c0,0.9-0.8,1.3-1.4,1.3v-0.6c0.2,0,0.7-0.2,0.7-0.6c0-0.4-0.4-0.8-1.4-0.8c-1.1,0-1.4,0.4-1.4,0.8c0,0.2,0.1,0.6,0.9,0.8v-0.7h0.7
	v1.3H6.2L6.2,33L6.2,33z"/>
<polygon id="XMLID_88_" class="st1" points="6.2,37.2 9.1,36 9.1,36 6.2,36 6.2,35.4 10.2,35.4 10.2,36.1 7.5,37.2 10.2,37.2 
	10.2,37.9 6.2,37.9 "/>
<path class="st1" d="M6.2,39.9c0-0.4,0.2-1.4,2.1-1.4s2.1,1.1,2.1,1.5s-0.2,1.5-2.1,1.5C6.3,41.3,6.2,40.3,6.2,39.9L6.2,39.9z
	 M10.7,40.1L10.7,40.1l0.5-0.3l-0.5-0.2v-0.4l0.8,0.4v0.5l-0.8,0.4V40.1L10.7,40.1z M9.7,39.9L9.7,39.9c0-0.3-0.3-0.8-1.4-0.8
	c-1.1,0-1.4,0.5-1.4,0.8c0,0.3,0.2,0.8,1.4,0.8C9.3,40.7,9.7,40.2,9.7,39.9z"/>
<polygon id="XMLID_84_" class="st1" points="6.2,43.7 9.1,42.5 6.2,42.5 6.2,41.9 10.2,41.9 10.2,42.5 7.5,43.8 10.2,43.8 
	10.2,44.3 6.2,44.3 "/>
<path id="XMLID_83_" class="st1" d="M6.2,47.3l0.5-0.1c-0.2-0.2-0.6-0.4-0.6-0.9c0-0.7,0.7-1.4,2.1-1.4c1.1,0,2.1,0.5,2.1,1.5
	c0,0.9-0.8,1.3-1.4,1.3V47c0.2,0,0.7-0.2,0.7-0.6c0-0.4-0.4-0.8-1.4-0.8c-1.1,0-1.4,0.4-1.4,0.8c0,0.1,0.1,0.6,0.9,0.8v-0.7h0.7v1.2
	H6.2V47.3z"/>
<polygon id="XMLID_82_" class="st1" points="6.4,50.7 9.3,49.5 6.4,49.5 6.4,48.9 10.4,48.9 10.4,49.5 7.6,50.7 10.4,50.7 
	10.4,51.3 6.4,51.3 "/>
<path id="XMLID_81_" class="st1" d="M6.4,54.2l0.5-0.1c-0.2-0.1-0.6-0.4-0.6-0.9c0-0.8,0.7-1.4,2.1-1.4c1.1,0,2.1,0.4,2.1,1.5
	c0,0.9-0.8,1.3-1.4,1.3V54c0.2,0,0.7-0.2,0.7-0.7c0-0.4-0.4-0.8-1.5-0.8c-1.1,0-1.4,0.4-1.4,0.9c0,0.1,0.1,0.6,0.9,0.7v-0.7h0.7v1.3
	H6.4V54.2z"/>
<polygon id="XMLID_80_" class="st1" points="6.4,57 8.2,57 8.2,55.8 6.4,55.8 6.4,55.2 10.4,55.2 10.4,55.8 8.9,55.8 8.9,57 
	10.4,57 10.4,57.6 6.4,57.6 "/>
<rect id="XMLID_79_" x="6.4" y="58.3" class="st1" width="4" height="0.6"/>
<path class="st1" d="M10.9,60.8l0.3-0.2l-0.3-0.2V60l0.6,0.4v0.4l-0.6,0.4V60.8L10.9,60.8z M6.4,59.6L6.4,59.6h4v2.1H9.7v-1.6H8.9
	v1.4H8.1v-1.4h-1v1.6H6.4L6.4,59.6L6.4,59.6z M5.4,60.3L5.4,60.3h0.5v0.6H5.4V60.3z"/>
<path class="st1" d="M7.8,63.8v-0.8H6.4v-0.6l4,0v1.3c0,0.6-0.5,0.9-1.2,0.9C8.8,64.8,7.8,64.6,7.8,63.8L7.8,63.8z M9.7,63.6
	L9.7,63.6v-0.5H8.5v0.6c0,0.4,0.5,0.4,0.6,0.4C9.6,64.1,9.7,63.9,9.7,63.6z"/>
<polygon id="XMLID_73_" class="st1" points="6.4,67.9 6.4,67.3 10.4,66.3 10.4,67 7.4,67.6 10.4,68.2 10.4,68.9 "/>
<path class="st1" d="M6.5,71.3L7.3,71L7.2,70l-0.8-0.2v-0.6l4,0.9l0.1,0.8l-4,1.1L6.5,71.3L6.5,71.3z M10.9,70.2L10.9,70.2l0.6-0.5
	v0.5l-0.6,0.3V70.2L10.9,70.2z M9.5,70.4L9.5,70.4L8,70.1v0.8L9.5,70.4z"/>
<path class="st1" d="M9.1,75.3l-0.3-0.6l-1.2,0.6l-0.3-0.6l3.6-1.8l0.6,1.2c0.2,0.5-0.1,1.1-0.8,1.4C10.3,75.8,9.5,76,9.1,75.3
	L9.1,75.3z M10.6,74.3L10.6,74.3l-0.2-0.4l-1.1,0.5l0.2,0.5c0.2,0.4,0.6,0.2,0.8,0.1C10.8,74.8,10.8,74.6,10.6,74.3z"/>
<polygon id="XMLID_67_" class="st1" points="10.1,79.1 11.4,77.9 10.6,77.1 9.3,78.3 8.9,77.9 11.8,75.1 12.3,75.6 11.1,76.6 
	11.9,77.5 13,76.5 13.5,76.9 10.5,79.6 "/>
<path class="st1" d="M13.2,81.5l0.2-0.8l-0.9-0.6L12,80.7l-0.6-0.3l2.9-2.9l0.6,0.4l-1.2,4L13.2,81.5L13.2,81.5z M15,77.4L15,77.4
	l-0.2-0.2l0.6-0.4l0.4,0.3L15,77.4L15,77.4z M14.1,78.4L14.1,78.4L13,79.6l0.7,0.4L14.1,78.4z"/>
<polygon id="XMLID_63_" class="st1" points="16.9,79.4 16.1,82.6 15.5,82.4 16.3,79.2 15.5,78.9 15.7,78.3 18,78.9 17.8,79.6 "/>
<polygon id="XMLID_62_" class="st1" points="20.5,79.6 20.5,82.9 20,82.9 20,79.6 19,79.6 19,78.9 21.5,78.9 21.5,79.6 "/>
<path class="st2" d="M23.9,82.9c-0.1-0.2-0.1-0.4-0.1-0.8c0-0.5-0.1-0.8-0.5-0.8h-0.6v1.6H22v-4.1h1.5c0.8,0,0.9,0.8,0.9,1.1
	c0,0.4-0.2,0.8-0.4,1c0.2,0.1,0.4,0.2,0.4,1c0,0.6,0,0.8,0.1,0.8v0.1L23.9,82.9L23.9,82.9z M23.4,79.6L23.4,79.6h-0.7v1.1h0.7
	c0.3,0,0.5-0.1,0.5-0.5C23.9,79.9,23.8,79.6,23.4,79.6z"/>
<rect id="XMLID_59_" x="25.1" y="78.9" class="st1" width="0.6" height="4.1"/>
<path class="st1" d="M28.5,78.1h-0.3c0.2-0.2,0.3-0.4,0.3-0.6c0-0.1-0.1-0.2-0.1-0.2c-0.1,0-0.2,0-0.3,0.1L28,77.2
	c0.2-0.1,0.2-0.1,0.4-0.1c0.2,0,0.4,0.2,0.4,0.4C28.8,77.8,28.7,78,28.5,78.1L28.5,78.1z M27.9,78.4L27.9,78.4h0.4l-0.4-0.6h-0.4
	l-0.3,0.6h0.3l0.2-0.4L27.9,78.4L27.9,78.4z M26.5,82.9L26.5,82.9v-4.1h2.2v0.8h-1.6v0.8h1.4v0.7h-1.4v1.1h1.6v0.7L26.5,82.9
	L26.5,82.9z"/>
<polygon id="XMLID_55_" class="st1" points="31.2,82.9 30,80.1 30,82.9 29.4,82.9 29.4,78.9 30,78.9 31.2,81.7 31.2,78.9 31.8,78.9 
	31.8,82.9 "/>
<polygon id="XMLID_54_" class="st1" points="35.7,82.9 34.5,80.1 34.5,82.9 33.9,82.9 33.9,78.9 34.6,78.9 35.7,81.7 35.7,78.9 
	36.3,78.9 36.3,82.9 "/>
<path class="st1" d="M38.7,78.4l-0.2-0.4l-0.2,0.4h-0.4l0.4-0.7h0.5l0.4,0.7H38.7L38.7,78.4z M38.4,83.1L38.4,83.1
	c-0.4,0-1.4-0.2-1.4-2.1s1.1-2.1,1.4-2.1c0.4,0,1.4,0.2,1.4,2.1C39.9,82.8,38.8,83.1,38.4,83.1L38.4,83.1z M38.4,79.5L38.4,79.5
	c-0.3,0-0.8,0.3-0.8,1.4s0.5,1.5,0.8,1.5c0.3,0,0.8-0.3,0.8-1.5C39.2,79.8,38.8,79.5,38.4,79.5z"/>
<polygon id="XMLID_50_" class="st1" points="42.3,82.9 41.1,80.1 41.1,82.9 40.5,82.9 40.5,78.9 41.2,78.9 42.3,81.7 42.4,81.7 
	42.4,78.9 42.9,78.9 42.9,82.9 "/>
<path id="XMLID_49_" class="st1" d="M45.9,82.9l-0.1-0.5c-0.1,0.3-0.4,0.6-0.9,0.6c-0.8,0-1.4-0.7-1.4-2.1c0-1.1,0.4-2.1,1.4-2.1
	c0.9,0,1.2,0.8,1.3,1.3h-0.6c0-0.1-0.2-0.6-0.6-0.6c-0.4,0-0.9,0.4-0.9,1.5s0.4,1.4,0.9,1.4c0.1,0,0.6-0.1,0.7-0.9h-0.7v-0.7h1.3
	v2.1L45.9,82.9L45.9,82.9z"/>
<polygon id="XMLID_48_" class="st1" points="49.6,79.6 49.6,82.9 48.9,82.9 48.9,79.6 48.1,79.6 48.1,78.9 50.5,78.9 50.5,79.6 "/>
<polygon id="XMLID_47_" class="st1" points="52.7,82.9 52.7,81.2 51.6,81.2 51.6,82.9 51,82.9 51,78.9 51.6,78.9 51.6,80.5 
	52.7,80.5 52.7,78.9 53.3,78.9 53.3,82.9 "/>
<path class="st1" d="M55.4,83.1c-0.4,0-1.4-0.2-1.4-2.2c0-1.9,1-2.1,1.4-2.1c0.4,0,1.4,0.2,1.4,2.1C56.8,82.8,55.8,83.1,55.4,83.1
	L55.4,83.1z M55.6,78.5L55.6,78.5l-0.2-0.4l-0.3,0.4h-0.4l0.4-0.7h0.4l0.4,0.7H55.6L55.6,78.5z M55.4,79.5L55.4,79.5
	c-0.4,0-0.8,0.3-0.8,1.4c0,1.1,0.4,1.5,0.8,1.5c0.3,0,0.8-0.3,0.8-1.5C56.1,79.8,55.7,79.5,55.4,79.5z"/>
<polygon id="XMLID_43_" class="st1" points="59.1,82.9 58,80.1 58,82.9 57.3,82.9 57.3,78.9 58,78.9 59.2,81.7 59.2,78.9 59.8,78.9 
	59.8,82.9 "/>
<polygon id="XMLID_42_" class="st1" points="63.1,82.9 62.5,82.9 61.5,78.9 62.2,78.9 62.8,82 63.5,78.9 64.1,78.9 "/>
<rect id="XMLID_41_" x="64.5" y="78.9" class="st1" width="0.6" height="4.1"/>
<path class="st1" d="M67.1,78.5l-0.2-0.4l-0.2,0.4h-0.3l0.3-0.6h0.4l0.4,0.6H67.1L67.1,78.5z M65.8,82.9L65.8,82.9v-4.1H68v0.8h-1.6
	v0.8h1.5v0.7h-1.5v1.1h1.7v0.7L65.8,82.9L65.8,82.9z M66.6,83.4L66.6,83.4h0.6V84h-0.6V83.4z"/>
<polygon id="XMLID_37_" class="st1" points="69.9,79.6 69.9,82.9 69.3,82.9 69.3,79.6 68.4,79.6 68.4,78.9 70.8,78.9 70.8,79.6 "/>
<polygon id="XMLID_36_" class="st1" points="74.2,82.9 73,80.1 73,80.1 73,82.9 72.4,82.9 72.4,78.9 73.1,78.9 74.2,81.7 74.2,78.9 
	74.9,78.9 74.9,82.9 "/>
<path class="st1" d="M77.5,82.9l-0.2-0.8h-1.1L76,82.9h-0.6l1-4.1h0.7l1,4.1H77.5L77.5,82.9z M76.7,79.8L76.7,79.8l-0.4,1.6h0.8
	L76.7,79.8z"/>
<polygon id="XMLID_33_" class="st1" points="80.9,82.9 80.9,79.6 80.4,82.9 79.7,82.9 79.2,79.6 79.2,79.6 79.2,82.9 78.6,82.9 
	78.6,78.9 79.6,78.9 80.1,82.1 80.6,78.9 81.5,78.9 81.5,82.9 "/>
<path id="XMLID_32_" class="st1" d="M36.1,76.1l41.7,0c2.8,0,5.1-2.3,5.1-5.1l0-41.7L36.1,76.1z"/>
<path id="XMLID_31_" class="st3" d="M82.9,11.1c0-2.9-2.3-5.1-5.1-5.1H62.5L12.8,55.7V71c0,2.8,2.2,5.1,5.1,5.1H33l50-50V11.1z"/>
<path id="XMLID_30_" class="st1" d="M17.9,5.9c-2.9,0-5.1,2.3-5.1,5.1l0,41.5L59.3,5.9L17.9,5.9z"/>
<path class="st4" d="M22.9,35.7c0,0.8-0.1,1.4-0.4,1.8C22.2,37.8,21.7,38,21,38c-0.4,0-0.6-0.1-0.8-0.4c-0.1-0.1-0.1-0.3-0.1-0.6
	v-3.9c0.8,0,1.4,0.1,1.8,0.3C22.6,33.8,22.9,34.6,22.9,35.7L22.9,35.7z M25.5,35.6L25.5,35.6c-0.1-0.9-0.4-1.6-1.2-2.2
	c-0.4-0.2-0.9-0.4-1.4-0.6v-0.1c0.5-0.1,1-0.4,1.4-0.8c0.4-0.4,0.7-0.9,0.7-1.6c0-1.1-0.6-1.8-1.7-2.2c-0.6-0.2-1.3-0.3-2.2-0.3
	h-4.6v0.4c0.4,0,0.8,0.1,0.9,0.1c0.3,0.2,0.4,0.5,0.4,0.9V37c0,0.4-0.1,0.8-0.4,0.9c-0.2,0.1-0.4,0.1-0.9,0.2v0.4h4.8
	c1.3,0,2.2-0.2,3-0.8C25,37.2,25.5,36.5,25.5,35.6L25.5,35.6z M22.5,30.5L22.5,30.5c-0.1,0.8-0.2,1.4-0.5,1.7
	c-0.3,0.3-0.9,0.4-1.8,0.4v-3.5c0-0.3,0.1-0.5,0.2-0.6c0.1-0.1,0.3-0.1,0.6-0.1c0.6,0,0.9,0.2,1.2,0.6
	C22.4,29.4,22.5,29.9,22.5,30.5z"/>
<path id="XMLID_26_" class="st4" d="M27.3,11.8c-0.2,0.2-0.4,0.5-0.6,1L23,22h-0.4l-4.2-9.4c-0.1-0.3-0.3-0.6-0.5-0.8
	c-0.2-0.2-0.4-0.3-0.8-0.3v-0.4h5.4v0.4c-0.6,0.1-0.9,0.1-1.1,0.1c-0.2,0.1-0.2,0.2-0.2,0.5v0.2l0.1,0.2l2.4,5.8h0.1l2.1-5.3
	l0.1-0.4c0.1-0.2,0.1-0.4,0.1-0.4c0-0.3-0.1-0.5-0.3-0.6c-0.2-0.1-0.6-0.1-1.1-0.2v-0.4h3.5v0.4C27.8,11.5,27.6,11.6,27.3,11.8z"/>
<path class="st4" d="M79.5,70.1c-1.1,1.1-2.6,1.6-4.4,1.6h-5.2v-0.5c0.2,0.2,0.5,0.1,0.8-0.1c0.3-0.1,0.6-0.2,0.8-0.4v-7.9
	c0-0.4-0.3-1-0.6-1.2c-0.2-0.1-0.5-0.1-0.9-0.2v-0.4h5c2,0,3.6,0.5,4.6,1.5c1,0.9,1.4,2.2,1.5,3.8C81,67.9,80.5,69.1,79.5,70.1
	L79.5,70.1z M77.4,63.7L77.4,63.7c-0.7-1.1-1.3-2-2.8-2c-0.4,0.4-0.9-0.2-0.9,0.6v1.6l0,6.3c0,0.3,0,0.6,0.2,0.8
	c0.2,0.2,0.3,0.2,0.6,0.2c0.9-0.1,1.9-0.3,2.5-1.1c1.1-1.2,0.9-2,0.9-3.4C78,65.5,78,64.7,77.4,63.7z"/>
<path class="st4" d="M63.9,71.7l-3.4-4.9h-0.4v3.1c0,0.6,0.1,0.9,0.3,1.1s0.6,0.3,1.1,0.3v0.4h-5.4v-0.4c0.5,0,0.9-0.1,1.1-0.3
	c0.2-0.1,0.3-0.5,0.3-1.1v-7c0-0.6-0.1-1-0.3-1.2c-0.2-0.1-0.6-0.2-1.1-0.2v-0.4h5.2c1.1,0,1.9,0.1,2.6,0.4c1.3,0.4,1.9,1.3,1.9,2.4
	c0,0.9-0.4,1.6-1,2c-0.5,0.4-1,0.6-1.6,0.7l3.3,4.4l0.3,0.2l0.4,0.1v0.3L63.9,71.7L63.9,71.7z M62.8,62.5L62.8,62.5
	c-0.3-0.6-0.8-0.9-1.6-0.9c-0.4,0-0.8,0.1-0.9,0.2c-0.1,0.1-0.2,0.2-0.2,0.5l0,4c1.1-0.1,1.8-0.2,2.3-0.4C62.8,65.6,63,65,63,64
	C63,63.4,63,62.9,62.8,62.5z"/>
<path class="st4" d="M27.4,64.4V64c0.5-0.1,0.9-0.1,1.1-0.2c0.1-0.1,0.2-0.2,0.2-0.5c0-0.1-0.1-0.2-0.1-0.6
	c-0.1-0.1-0.1-0.3-0.2-0.5l-0.4-0.9h-3.7c-0.2,0.6-0.4,1-0.4,1.2c-0.2,0.4-0.2,0.7-0.2,0.9c0,0.2,0.2,0.4,0.5,0.5
	c0.2,0.1,0.4,0.1,0.8,0.1v0.4h-3.3V64c0.4-0.1,0.7-0.3,0.9-0.6c0.1-0.2,0.4-0.6,0.7-1.3l3.6-8.6h0.4l3.6,8.3
	c0.4,0.9,0.7,1.5,0.9,1.8c0.2,0.3,0.5,0.4,0.9,0.4v0.4L27.4,64.4L27.4,64.4z M26.1,57L26.1,57H26l-1.5,3.6h3.2L26.1,57z"/>
<path id="XMLID_19_" class="st5" d="M37.9,75.4c0,0,2.7-1.1,5.1-1.5c0.9-0.2,6.3-1.5,6.1-7.1c-0.1-1.4-2.2,0.4-2.2,0.4
	s-4.3,0.6-6.1,1.7C39.9,69.5,37.9,71.7,37.9,75.4z"/>
<path id="XMLID_18_" class="st6" d="M37.9,75.4c0,0,2.7-1.1,5.1-1.5c0.9-0.2,6.3-1.5,6.1-7.1c-0.1-1.4-2.2,0.4-2.2,0.4
	s-4.3,0.6-6.1,1.7C39.9,69.5,37.9,71.7,37.9,75.4"/>
<path id="XMLID_17_" class="st5" d="M56.2,57.5c0,0,1,6.3-4,8.3c-2.1,0.9-5.3,1.9-5.8,2.4c0,0-1.1-4.4,2.6-7
	c1.2-0.9,3.6-1.7,5.2-2.2C55.7,58.4,56.2,57.5,56.2,57.5z"/>
<path id="XMLID_16_" class="st6" d="M56.2,57.5c0,0,1,6.3-4,8.3c-2.1,0.9-5.3,1.9-5.8,2.4c0,0-1.1-4.4,2.6-7
	c1.2-0.9,3.6-1.7,5.2-2.2C55.7,58.4,56.2,57.5,56.2,57.5"/>
<path id="XMLID_15_" class="st5" d="M58.8,49.8c0,0,3.1,3.8-0.4,8.2c-0.8,1-4.5,3.4-5.4,4.6c0,0-1.9-4.1,0.4-7.4
	c0.6-0.9,2.8-2.7,3.7-3.4S58.8,49.8,58.8,49.8z"/>
<path id="XMLID_14_" class="st6" d="M58.8,49.8c0,0,3.1,3.8-0.4,8.2c-0.8,1-4.5,3.4-5.4,4.6c0,0-1.9-4.1,0.4-7.4
	c0.6-0.9,2.8-2.7,3.7-3.4S58.8,49.8,58.8,49.8"/>
<path id="XMLID_13_" class="st5" d="M55,41.4c0,0-2.9,1.7-1,6.6c0.2,0.6,2.5,4.6,2.5,5.8c0,0,4.1-2.5,2.4-7.6
	C58.7,45.2,56.8,42.2,55,41.4z"/>
<path id="XMLID_12_" class="st6" d="M55,41.4c0,0-2.9,1.7-1,6.6c0.2,0.6,2.5,4.6,2.5,5.8c0,0,4.1-2.5,2.4-7.6
	C58.7,45.2,56.8,42.2,55,41.4"/>
<path id="XMLID_11_" class="st5" d="M47.6,34.8c0,0-1,3.1,1.4,6c1,1.2,5.5,2.6,7.4,4C56.4,44.7,58.8,37,47.6,34.8z"/>
<path id="XMLID_10_" class="st6" d="M47.6,34.8c0,0-1,3.1,1.4,6c1,1.2,5.5,2.6,7.4,4C56.4,44.7,58.8,37,47.6,34.8"/>
<path id="XMLID_9_" class="st5" d="M41.3,29.3c0,0,9.8,0.7,8.4,9.6c0,0-2.2-1.4-4-2.1c-0.8-0.4-4.7-1.6-4.4-5.3
	C41.4,30.5,41.3,29.3,41.3,29.3z"/>
<path id="XMLID_8_" class="st6" d="M41.3,29.3c0,0,9.8,0.7,8.4,9.6c0,0-2.2-1.4-4-2.1c-0.8-0.4-4.7-1.6-4.4-5.3
	C41.4,30.5,41.3,29.3,41.3,29.3"/>
<path id="XMLID_7_" class="st5" d="M41.5,20.8c0,0-3.6,2.8-1.8,7.4c0.3,0.9,2.2,3.4,3.2,3.8c0,0,1.1-3.2,1.8-5.5
	c0.2-0.9,0.9-4.6-1.3-6.1C42.2,19.7,41.5,20.8,41.5,20.8z"/>
<path id="XMLID_6_" class="st6" d="M41.5,20.8c0,0-3.6,2.8-1.8,7.4c0.3,0.9,2.2,3.4,3.2,3.8c0,0,1.1-3.2,1.8-5.5
	c0.2-0.9,0.9-4.6-1.3-6.1C42.2,19.7,41.5,20.8,41.5,20.8"/>
<path id="XMLID_5_" class="st5" d="M40.7,23.5c0,0-2.8-8.3,7.3-10.5c0,0,2.2,3.2-1.4,6.5C45.6,20.5,41.4,22.6,40.7,23.5z"/>
<path id="XMLID_4_" class="st6" d="M40.7,23.5c0,0-2.8-8.3,7.3-10.5c0,0,2.2,3.2-1.4,6.5C45.6,20.5,41.4,22.6,40.7,23.5"/>
<path id="XMLID_3_" class="st5" d="M56.4,6.7c0,0-10.4-0.2-10,9.1c0,0,6.5-2,8.3-3.9C55.6,10.9,56.6,9,56.4,6.7z"/>
<path id="XMLID_2_" class="st6" d="M56.4,6.7c0,0-10.4-0.2-10,9.1c0,0,6.5-2,8.3-3.9C55.6,10.9,56.6,9,56.4,6.7"/>
</svg>
