<?xml version="1.0" encoding="utf-8"?>
<!-- Generator: Adobe Illustrator 25.3.1, SVG Export Plug-In . SVG Version: 6.00 Build 0)  -->
<svg version="1.1" id="Layer_1" xmlns="http://www.w3.org/2000/svg" xmlns:xlink="http://www.w3.org/1999/xlink" x="0px" y="0px"
	 viewBox="0 0 132.3 139" style="enable-background:new 0 0 132.3 139;" xml:space="preserve">
<style type="text/css">
	.st0{fill:#EB2E4A;}
</style>
<path class="st0" d="M28.9,41.6l24.5,10.7c1.5,0.7,3.1,0.9,4.7,0.7c4.4-0.7,7.4-4.8,6.8-9.2c-0.5-3.3-3-5.9-6.2-6.7l-26.3-5.8
	c-2.9-0.8-5.9,1-6.7,4c-0.2,0.7-0.2,1.5-0.1,2.2C26,39.2,27.2,40.8,28.9,41.6"/>
<path class="st0" d="M58.9,24.1c-1,1.6-1.2,3.5-0.7,5.2c1,3.2,4.5,5,7.7,3.9c1-0.3,2-0.9,2.7-1.7L84,13.7c2-2.2,2.7-5.3,1.8-8.1
	c-1.4-4.3-6-6.6-10.2-5.2c0,0,0,0,0,0c-1.8,0.6-3.4,1.8-4.4,3.5L58.9,24.1"/>
<path class="st0" d="M103,53.5c-1.8-0.4-3.7-0.1-5.2,1c-2.7,2-3.3,5.8-1.4,8.5c0.6,0.9,1.5,1.6,2.5,2l21.7,9.1
	c2.7,1.2,5.8,0.9,8.2-0.8c3.6-2.6,4.4-7.7,1.8-11.3c-1.1-1.6-2.8-2.7-4.6-3.1L103,53.5"/>
<path class="st0" d="M88.7,104.4c-0.1-1.8-1-3.5-2.5-4.6c-2.7-2-6.5-1.4-8.5,1.3c-0.6,0.9-1,1.9-1.1,3c0,0.1-1.9,23.4-1.9,23.4
	c-0.3,2.9,0.9,5.8,3.3,7.6c3.6,2.6,8.7,1.8,11.3-1.8c1.1-1.5,1.7-3.5,1.5-5.4C90.7,127.5,88.7,104.4,88.7,104.4"/>
<path class="st0" d="M35.8,106.6c1.7-0.7,3-2.1,3.6-3.8c1-3.2-0.7-6.7-3.9-7.7c-1-0.3-2.1-0.4-3.2-0.2l-22.9,5.4
	c-2.9,0.6-5.3,2.7-6.2,5.5c-1.4,4.3,0.9,8.8,5.2,10.2c1.8,0.6,3.8,0.5,5.6-0.2L35.8,106.6"/>
<path class="st0" d="M17.4,56.9c1.2,1.4,2.9,2.2,4.8,2.3c3.4,0,6.1-2.7,6.1-6.1c0-1.1-0.3-2.2-0.8-3.1c0,0-12.2-20-12.2-20.1
	c-1.5-2.6-4.2-4.2-7.1-4.2c-4.5,0-8.1,3.6-8.1,8.1l0,0c0,1.9,0.7,3.8,1.9,5.2L17.4,56.9"/>
<path class="st0" d="M77.1,30.4c0,0.1-2.6,26.6-2.6,26.6c-0.2,1.6,0.1,3.2,0.8,4.7c2,4,6.9,5.6,10.9,3.5c2.9-1.5,4.7-4.6,4.4-7.9
	c0-0.1-2.5-26.7-2.6-26.8c0-0.7-0.2-1.5-0.6-2.1c-1.4-2.7-4.7-3.8-7.4-2.4C78.5,26.8,77.3,28.5,77.1,30.4"/>
<path class="st0" d="M102.7,72.7l-26.1,5.8c-1.6,0.3-3.1,1.1-4.2,2.2c-3.2,3.1-3.2,8.3,0,11.4c2.3,2.4,5.9,3,8.9,1.7L106,83.2
	c0.7-0.3,1.3-0.7,1.9-1.2c2.2-2.2,2.2-5.6,0-7.8C106.5,72.8,104.6,72.3,102.7,72.7"/>
<path class="st0" d="M70.4,110.1L56.8,87.1c-0.8-1.4-2-2.6-3.4-3.3c-4-2-8.9-0.4-10.9,3.5c-1.5,2.9-1.1,6.5,1.1,9l17.8,20.2
	c1.9,2.3,5.4,2.7,7.8,0.7c0.6-0.5,1.1-1.1,1.4-1.7C71.3,113.8,71.3,111.8,70.4,110.1"/>
<path class="st0" d="M24.7,90.9l17.7-20c1.1-1.2,1.8-2.7,2.1-4.3c0.7-4.4-2.3-8.6-6.8-9.2c-3.2-0.5-6.5,1-8.2,3.8L16,84.3
	c-1.6,2.6-0.9,6,1.7,7.6c0.6,0.4,1.3,0.7,2.1,0.8C21.6,93,23.5,92.3,24.7,90.9"/>
</svg>
