<?xml version="1.0" encoding="utf-8"?>
<!-- Generator: Adobe Illustrator 25.3.1, SVG Export Plug-In . SVG Version: 6.00 Build 0)  -->
<svg version="1.1" id="Layer_1" xmlns="http://www.w3.org/2000/svg" xmlns:xlink="http://www.w3.org/1999/xlink" x="0px" y="0px"
	 viewBox="0 0 276.1 223.6" style="enable-background:new 0 0 276.1 223.6;" xml:space="preserve">
<style type="text/css">
	.st0{fill-rule:evenodd;clip-rule:evenodd;fill:#F58220;}
	.st1{fill-rule:evenodd;clip-rule:evenodd;fill:#2C378F;}
</style>
<path class="st0" d="M81.1,108.2c4.1,0.3,9.2,0,13.4,0c4.4,0,8.8,0,13.2,0c1.4,0,1.8,0.2,2.9-0.5c1.9-1.4,3.9-2.6,6-4.2
	c6.5-5,12.4-9.1,17.9-15.8c2-2.5,3.9-5.2,5.2-8.3c2.4-5.8,1.7-11.1-1.3-16.1c-1.8-3-4.1-5.3-6.2-7.4c-6.1-5.9-16.6-13.1-19.9-20.4
	c-3.7-8.2,1.3-15,5.2-19.3c2-2.2,4.4-4.4,6.9-6.5l7.5-5.7c-4.2-0.2-8.8,0-13,0H86.2c-5,0-5.2-0.6-5.2,1.2L81.1,108.2z M195.4,4.1
	l0,104.1l-49.1,0.1l7.7-6.2c1.9-1.6,5.6-5,7.2-6.7c3.6-3.9,9.5-10.8,9.7-18.3c0.3-13.3-16.5-22.3-25.4-30.5
	c-3.6-3.3-10.8-9.9-9-18.4c0.4-2,1-3.5,1.9-5.1c1.6-3,3.7-5.5,6-7.9c2.7-2.8,10.3-9.2,13.3-11C158.4,3.8,166.8,4,168,4
	C170,4,194.1,3.9,195.4,4.1 M136.6,108.2l-5.1,0c1.1-0.7,2.3-1.7,3.3-2.4c7.4-5.5,15.9-12.3,20.3-20.6c7.6-14.3-4.5-24.3-11.8-30.6
	c-4.7-4.1-7.7-6-12.4-11c-3.7-3.9-7.5-9.2-4.7-16.7c2.9-7.8,13.2-16.2,20-21c1.1-0.8,2.3-2,3.8-1.9c0,0.1-2.8,2.1-3.2,2.4
	c-1.1,0.8-2,1.6-3.2,2.6c-1.8,1.6-4.3,3.8-5.9,5.8c-10.4,12.2-7.8,20,3.8,30.1c3.9,3.4,8.7,6.9,12.9,10.5
	C169.8,68,169,79.4,156.4,93c-1.8,2-3.7,3.8-5.9,5.8c-2.4,2-7.2,6-9.8,7.8C138.1,108.3,139,108.2,136.6,108.2 M120.4,29.7
	c0,14.7,28.8,23.8,31.9,40.9c1.9,10.8-7,19.7-11.6,24.2c-2.2,2.1-7.5,6.6-9.9,8.3c-1.7,1.1-3.6,2.6-5.3,3.8c-1,0.7-1.6,1.4-3.1,1.4
	c-1.5,0-3.1,0-4.6,0c0.3-0.5,6.1-4.6,6.6-4.9c6.3-4.5,13.3-11,17.7-17.5c9.4-14.1-1.3-24-9-30.7c-7.6-6.7-21.4-16-16.5-28.3
	c2.1-5.4,6.6-9.9,10.3-13.2c2.6-2.2,6.9-5.6,9.9-7.6c1.1-0.7,2.4-2.1,3.9-2c-0.4,0.7-2.5,2.1-3.2,2.6
	C130.9,11.7,120.4,20.9,120.4,29.7"/>
<g>
	<path class="st1" d="M146.1,123.9c2.2,3.1,2.3,6.6,2.3,11.2c0,9.1-0.1,18.2,0,27.4l-34.9,0c-0.1-9.1,0-18.2,0-27.3
		c0-4.6,0-8.2,2.4-11.3c2.7-3.4,5.9-3.5,9.5-3.9l0-3.1l-47,0l0,3.1c4.9,0.3,8.1,1.4,10,4.7c2.2,3.6,1.9,8.4,1.9,13.1v59.9
		c0,9.8,0.1,17-11.9,17.6l0,3.1l47,0l0-3.1c-2.4-0.3-3.8-0.2-6-1.2c-6.2-2.8-5.9-9.6-5.9-15.5c0-2.3-0.1-27.2,0-28.8l34.8,0
		c0.2,2.3,0,5,0,7.3v21.7c0,4.7,0.1,9-2.1,12.3c-3.1,4.5-7.9,3.8-9.8,4.3l0,3h47l0-3.1c-5.1-0.2-8.1-1.5-10.1-4.7
		c-2.2-3.5-1.9-8.4-1.9-13.1v-59.9c0-9.2-0.3-17.2,11.9-17.6l0-3.1l-47,0l0.1,3.1C141,120,144.1,121.2,146.1,123.9"/>
	<path class="st1" d="M226.4,168c2.4-0.3,6.2-0.1,8.8,0c7.8,0,13.1,3.2,15.5,11.4c1.4,4.8,1.7,11.1,1.7,16.4
		c-0.1,12.5-5.6,17.9-17.7,18.3c-3.2,0.1-5.2-0.2-6.8-2.1c-1.5-1.8-1.5-4.8-1.5-7.6c-0.1-6,0-12.1,0-18.1
		C226.4,180.2,226.3,174,226.4,168 M226.5,162.7c-0.2-1.1-0.1-30-0.1-32c0-5.9,0.1-9.3,6.4-9.5c4.7-0.2,9.8,0.7,12.4,3.2
		c2.8,2.8,3.2,7.8,3.2,12.9c0,4.7,0.4,11.2-0.7,15.4C245.1,163,235.4,163.1,226.5,162.7 M250.7,163.3
		C250.8,163.2,250.8,163.2,250.7,163.3l3.5-1.2c7.5-2.5,14.6-6.9,17-15.5c4.9-17.9-11-28.8-25.2-29.1c-2.8-0.1-5.8-0.4-8.8-0.5
		c-9-0.2-18.4-0.1-27.4-0.1c-6.1,0-12.4-0.2-18.5,0l0,3.1c12.3,0.4,11.9,8.6,11.9,17.8v59.9c0,4.7,0.3,9.4-1.9,13
		c-3,4.9-8.5,4.2-10,4.7l0,2.9c1.1,0.3,38.9,0.1,41.2,0.1c14.9,0,21,0.8,33.3-8c4.2-3,7.5-5.7,9.4-11.6c1.7-5.6,2-12.7-0.2-18.2
		c-1-2.7-2.5-4.7-4.1-6.4c-2.8-3.2-8.7-6.3-12.7-8c-1.2-0.5-2.5-1-3.7-1.5C253.8,164.4,251.1,163.7,250.7,163.3"/>
	<path class="st1" d="M3.5,220.8c0.6-4,1.2-5.4,4.3-4.9c7.4,1.2,16.1,4.8,22.8,4.9c5.7,0.1,11.3-0.7,16.2-2.3
		c2.2-0.7,4.6-1.7,6.5-2.9c1.8-1.1,4.1-2.6,5.3-3.9c2-2.1,2.5-2.3,4.3-5.1c1.2-1.9,2.2-3.9,3-6.3c1.6-5,2.1-11.3,1-16.8
		c-2.9-14.4-16.4-22.7-28.3-27.5c-7.9-3.2-18.3-6.5-21.4-15.8c-1.9-5.7-0.4-10.9,2.4-14.6c2.7-3.5,6.7-5.7,13.1-5.5
		c21.1,0.6,25.1,24.3,27.9,27.9l2.8,0l0-32.7l-3.2,0c-0.8,1.2-2.1,4.9-3.9,5.5c-0.8,0.2-6.2-1.5-7.3-1.9c-5.2-1.5-9.4-2.9-15.3-3.4
		c-13.1-1.1-20.7,4.1-26.2,10.8c-5.6,6.9-8.4,19.5-4.2,29.7c6.1,14.8,17.9,18.6,31,25.2c7.9,4,17.8,9.9,16.9,20.7
		c-0.5,6-3.2,9.4-7.1,11.6c-3.7,2.1-11,3.2-15.8,2.4C23,215,19,212,16.1,209.4c-0.5-0.4-0.8-0.9-1.2-1.3c-0.5-0.5-0.7-0.7-1.2-1.2
		c-7.6-9.1-6.8-10.1-10.4-22.4l-3.4,0l0,36.2L3.5,220.8z"/>
</g>
</svg>
