<?xml version="1.0" encoding="utf-8"?>
<!-- Generator: Adobe Illustrator 25.3.1, SVG Export Plug-In . SVG Version: 6.00 Build 0)  -->
<svg version="1.1" id="Layer_1" xmlns="http://www.w3.org/2000/svg" xmlns:xlink="http://www.w3.org/1999/xlink" x="0px" y="0px"
	 viewBox="0 0 157.1 163.9" style="enable-background:new 0 0 157.1 163.9;" xml:space="preserve">
<style type="text/css">
	.st0{clip-path:url(#SVGID_2_);fill:url(#SVGID_3_);}
	.st1{clip-path:url(#SVGID_5_);fill:url(#SVGID_6_);}
</style>
<g>
	<g>
		<g>
			<defs>
				<path id="SVGID_1_" d="M74.9,8.2C34.2,10.1,2.7,44.6,4.6,85.3s36.4,72.3,77.1,70.4c40.7-1.9,72.3-36.4,70.4-77.1
					C150.3,39,117.6,8,78.4,8C77.2,8,76.2,8,74.9,8.2"/>
			</defs>
			<clipPath id="SVGID_2_">
				<use xlink:href="#SVGID_1_"  style="overflow:visible;"/>
			</clipPath>
			
				<radialGradient id="SVGID_3_" cx="-233.9382" cy="175.7394" r="2.2918" gradientTransform="matrix(30.5639 0 0 30.5639 7242.9146 -5308.4126)" gradientUnits="userSpaceOnUse">
				<stop  offset="0" style="stop-color:#FFFFFF"/>
				<stop  offset="1" style="stop-color:#CD9B51"/>
			</radialGradient>
			<rect x="2.9" y="8" class="st0" width="151.1" height="149.4"/>
		</g>
	</g>
	<g>
		<g>
			<defs>
				<path id="SVGID_4_" d="M61.4,145.3c-8.3-0.9-18.2-3.5-26.7-10.9c-8-6.8-12.8-16.3-15.2-24.4c-2.4-8.5-3.5-18.4,0.5-17.5
					c1.2,0.2,3.3,5.7,5.7,9.7c2.4,4.2,4.3,6.4,6.2,7.8c0.9,0.7,3.6-5.7,7.8-9.2c2.4-1.9,5-2.6,5.4,3.3c0.5,7.3-0.9,15.8,1.4,15.8
					c1.9,0,6.4-1.6,16.1-2.3c3.6-0.3,5.7,0.3,2.3,5.4c-1.7,2.4-4.2,5.9-9.5,9.9c8.3,7.8,18.2,6.8,18.4,10.1c0.2,1.9-3.6,2.9-8.5,2.9
					C64,145.4,62.8,145.4,61.4,145.3 M89.3,75.6c-7.6-1.6-9.2-8.5-9.2-8.5c-0.7-2.4-0.7-5.5-0.3-9.4c1-8.1,3.3-12,5.7-18.4
					c3.5-8.5-4.9-13.5-3.5-16.6c1.9-4.2,7.8,1.2,14.2,1.6c5.5,0.3,9,0,13.3,0.7c5.9,0.7,12.8,2.8,15.9,6.4c2.8,3.3-1.6,7.5-6.8,4.9
					c-3.8-1.9-8.7-0.7-5.7,3.3c3.5,3.8,5,3.8,8.5,4.9c9.5,2.4,9.7,11.6,3.3,16.3c-7.3,5.4-14.7,3.1-17.7-7.5c-1.6-5.2-5.2-8-9-6.4
					c-3.8,1.6-1.6,8.3,1.4,14.7c5,12.8-5.2,14-9,14C90,75.6,89.5,75.6,89.3,75.6 M83.8,147.7c0-1.7,2.4-2.1,2.4-2.1
					c22.2-4.3,15.6-18.9,7.8-26.3c-3.3-3.1-34.1-29.6-34.1-29.6c-29.3-25.3-27-45.1-27-45.1c1.4-24.3,22.7-30.3,38.8-28.9
					c1.9,0.2,2.9,1.4,2.6,2.9c-0.3,1.7-2.8,1.9-2.8,1.9c-5.2,0.3-9.7,0.9-13.2,3.1c-13,8.7-9.2,23.6,8.1,40c2.3,2.1,4.5,4.3,6.9,6.4
					c0,0,3.5,3.1,10.4,9.7c13.3,12.3,20.6,18.9,20.6,18.9c23.4,19.6,15.4,37.3,6.4,43.5c-6.8,4.7-14.4,6.9-24.3,7.5h-0.3
					C85.3,149.6,83.9,149.1,83.8,147.7 M77,7.2c-0.7,0-1.4,0-2.1,0C33.7,9.1,1.8,44.1,3.7,85.3c1.7,39.9,34.5,71,74,71.4h1.2
					c0.9,0,1.9,0,2.8,0c39.7-1.7,70.9-34.3,71.4-73.6V81c0-0.7,0-1.6,0-2.4C151.4,38.9,119,7.9,80,7.2C80,7.2,77,7.2,77,7.2z"/>
			</defs>
			<clipPath id="SVGID_5_">
				<use xlink:href="#SVGID_4_"  style="overflow:visible;"/>
			</clipPath>
			
				<radialGradient id="SVGID_6_" cx="-238.0688" cy="172.2306" r="2.2918" gradientTransform="matrix(68.3472 0 0 68.3472 16362.1768 -11708.5371)" gradientUnits="userSpaceOnUse">
				<stop  offset="0" style="stop-color:#15BFF1"/>
				<stop  offset="0.2191" style="stop-color:#1197D4"/>
				<stop  offset="0.573" style="stop-color:#1067B2"/>
				<stop  offset="1" style="stop-color:#1067B2"/>
			</radialGradient>
			<rect x="1.8" y="7.2" class="st1" width="151.3" height="149.5"/>
		</g>
	</g>
</g>
</svg>
