<?xml version="1.0" encoding="utf-8"?>
<!-- Generator: Adobe Illustrator 25.3.1, SVG Export Plug-In . SVG Version: 6.00 Build 0)  -->
<svg version="1.1" id="Layer_1" xmlns="http://www.w3.org/2000/svg" xmlns:xlink="http://www.w3.org/1999/xlink" x="0px" y="0px"
	 viewBox="0 0 541.5 417.2" style="enable-background:new 0 0 541.5 417.2;" xml:space="preserve">
<style type="text/css">
	.st0{fill:#FFFFFF;}
	.st1{fill:#EB2225;}
	.st2{fill:#060202;}
</style>
<rect x="-0.8" class="st0" width="541.5" height="418.7"/>
<g>
	<path class="st1" d="M486.8,301.1c-0.6-0.6-1.5-1.2-2.6-1.6c2.7-0.2,4.8-1.1,6.4-2.8c1.6-1.7,2.4-3.6,2.4-5.9
		c0-1.6-0.5-3.1-1.4-4.5c-1-1.4-2.2-2.4-3.9-3c-1.6-0.6-4.1-0.8-7.5-0.8h-0.3h-10.6v30.8h5v-13.1h2.9c1.2,0,2.2,0.2,3,0.5
		c0.4,0.2,0.7,0.3,1,0.6c1.3,1,3,3.4,5.2,7.2l2.7,4.9h6.1l-3.8-6C489.5,304.3,488,302.3,486.8,301.1z M480.2,295.9h-0.1h-5.9v-9.3
		h5.6h0.3c2.3,0,3.8,0.2,4.7,0.5c0.9,0.3,1.6,0.9,2.1,1.6c0.5,0.7,0.8,1.5,0.8,2.4c0,1.4-0.5,2.6-1.6,3.4
		C485.1,295.5,483.1,295.9,480.2,295.9z"/>
	<path class="st1" d="M506.5,283.1c-2.6-4.6-6.1-8.1-10.7-10.6c-4.6-2.5-9.3-3.7-14.1-3.7c-0.6,0-1.1,0-1.7,0.1
		c-4.2,0.2-8.4,1.5-12.4,3.6c-4.6,2.5-8.2,6-10.7,10.6c-2.6,4.6-3.8,9.4-3.8,14.4c0,4.9,1.3,9.7,3.8,14.2c2.5,4.6,6.1,8.1,10.6,10.6
		c4,2.2,8.2,3.5,12.6,3.7c0.5,0,1.1,0,1.7,0c5,0,9.7-1.3,14.2-3.8c4.5-2.5,8.1-6,10.6-10.6c2.5-4.5,3.8-9.3,3.8-14.2
		C510.4,292.4,509.1,287.6,506.5,283.1z M502.5,309.2c-2.1,3.8-5,6.7-8.8,8.8c-3.8,2.1-7.7,3.2-11.9,3.2c-0.6,0-1.1,0-1.7-0.1
		c-3.5-0.3-6.9-1.3-10.2-3.1c-3.8-2.1-6.7-5.1-8.9-8.8c-2.1-3.8-3.2-7.7-3.2-11.8c0-4.2,1.1-8.1,3.2-12c2.1-3.8,5.1-6.8,8.9-8.8
		c3.3-1.8,6.6-2.8,10.1-3c0.5,0,1.1-0.1,1.7-0.1c4,0,7.9,1,11.7,3.1c3.8,2.1,6.8,5,8.9,8.8c2.1,3.8,3.2,7.8,3.2,12
		C505.6,301.5,504.6,305.5,502.5,309.2z"/>
	<path class="st1" d="M494,154.8l-13-13L338.7,0l-77.1,77.1l-0.1,0.1l-78-77.1L28.8,155.2L184,310l77.2-77.2l0.4,0.1l0.1,0
		l77.4,77.3L481,167.9L494,154.8z M261.6,231.8l-0.1,0.1c-2.4-1-61.1-60.8-72.4-71.9c-5.9-5.8-7-3.1,4.9-15
		c9.7-9.7,19.1-19.1,28.8-28.8c11.2-11.2,25.4-24.8,36-36c1.2-1.3,2.1-1.8,2.8-1.9c1.5-0.1,2.4,2,4.8,4.4c4.9,5,9.6,9.7,14.4,14.4
		c10.4,10.2,18.9,19.3,28.9,28.8c3.6,3.5,27.3,26.5,28.7,29L261.6,231.8z"/>
</g>
<g>
	<path class="st1" d="M48,347.8l-1,0.6v46.2l0,0.8c2.5,0.2,24.3,0.1,28.3,0.1l0.9,0c0.1-2.5,0.1-8,0-10.6l-16.3,0
		c-0.2-2.1-0.1-5.7-0.1-7.9l15.5-0.1c0.1-2.4,0.1-7.5,0-10.2l-15.5-0.2c-0.1-1.7-0.1-6.4,0-8.1c1.2-0.3,10.7-0.1,13.2-0.1
		c1.7,0,3.2,0.6,3.2-1c0-2.7,0.1-6.9,0-9.4C74.4,347.7,48.3,347.8,48,347.8z"/>
	<path class="st1" d="M248.5,346.8c-0.9-0.1-1.7-0.1-2.5-0.1c-14.1,0.1-23.9,9.7-25.5,22.6c-1.9,15,10.2,26,23,27.4
		c0.8,0.1,1.7,0.1,2.5,0.2c13.7,0.3,23.8-10.4,25.4-22.7C273.3,360,261.3,347.7,248.5,346.8z M258.2,373.9c-1.5,8.3-6.9,12-12.3,12
		c-6.8,0-13.6-6.1-12.4-16.4c0.8-6.2,5.6-12,12.4-11.8c0.7,0,1.4,0.1,2.1,0.2C254.6,359.2,259.7,366.2,258.2,373.9z"/>
	<path class="st1" d="M6.3,347.9c-0.2,2.3,0,8,0,10.7c0,1.2,7.9,0.3,10.6,0.6l0,36.4l13,0l0.1-36.4l10.7-0.1c0.2-1.5,0.1-9.5,0-11.2
		C39.2,347.7,8.3,347.7,6.3,347.9z"/>
	<path class="st1" d="M100.5,360.2c3.6-2.8,8.9-3.3,12.8-1.5c4.6,2.1,5.2,4.3,6.3,4.4l-0.1-14c-1.2-0.9-1.9-1.1-3.4-1.6l-1.1-0.4
		c-0.9-0.4-4.2-1-5.2-1c-5.7-0.2-8.8-0.3-14,2.1c-4.6,2.2-7.9,5.7-10.5,10.1c-4.2,7.1-4.2,19.4,0.2,26.6c0.8,1.3,2.5,3.8,3.5,4.7
		c0.7,0.6,1.3,1.4,2.1,1.9c0.4,0.3,0.7,0.4,1.2,0.9c0.5,0.4,0.5,0.5,1.1,0.8c0.5,0.3,0.7,0.5,1.3,0.8c3.1,1.8,10,3.3,13.6,2.8
		l5.3-0.9c0.6-0.2,0.3-0.2,0.8-0.3c1.6-0.4,3.7-1,5.1-1.9l0-14.3c-0.5,0.1-0.5,0.1-0.9,0.5c-4.5,5.2-12.4,7-18.1,2.5
		c-3.5-2.8-5-6.6-5-11c0-0.8,0-1.9,0.1-2.7C96,365.8,98.1,362.1,100.5,360.2z"/>
	<path class="st1" d="M327.1,347.9l-13-0.1l-8.8,29.7l-8.6-29.6l-8.5-0.1c-4.9,0-4.4-1.1-5.1,3.4c-0.7,4.8-1.7,9.9-2.3,14.6
		c-0.6,5-1.6,9.9-2.3,14.7c-0.6,4.3-2.2,11-2.2,14.9c1.3,0.1,11.2,0.2,11.7-0.1c0.7-0.3,1.5-8.6,1.7-9.9c0.4-3.5,1-6.7,1.3-10.3
		c0.2-1.9,0.8-8.8,1.2-10.2l8.5,30.3l8.7,0.1l8.8-30.1l3.6,30l12.3,0.1L327.1,347.9z"/>
	<path class="st1" d="M157.2,350.7c0,3.2,0.4,13.1-0.1,15.6c-1.9,0-16.7,0.3-17.2-0.1l0-18.3l-13-0.1l-0.1,47.7l13.1-0.1l0-19.2
		l17.2-0.1l0.1,19.3l13.2,0.1l0-47.7l-8.1,0C156.3,347.8,157.2,347.2,157.2,350.7z"/>
	<path class="st1" d="M195.3,360.2c3.6-2.8,8.9-3.3,12.8-1.5c4.6,2.1,5.2,4.3,6.3,4.4l-0.1-14c-1.2-0.9-1.9-1.1-3.4-1.6l-1.1-0.4
		c-0.9-0.4-4.2-1-5.2-1c-5.7-0.2-8.8-0.3-14,2.1c-4.6,2.2-7.9,5.7-10.5,10.1c-4.2,7.1-4.2,19.4,0.2,26.6c0.8,1.3,2.5,3.8,3.5,4.7
		c0.7,0.6,1.3,1.4,2.1,1.9c0.4,0.3,0.7,0.4,1.2,0.9c0.5,0.4,0.5,0.5,1.1,0.8c0.5,0.3,0.7,0.5,1.3,0.8c3.1,1.8,10,3.3,13.6,2.8
		l5.3-0.9c0.6-0.2,0.3-0.2,0.8-0.3c1.6-0.4,3.7-1,5.1-1.9l0-14.3c-0.5,0.1-0.5,0.1-0.9,0.5c-4.5,5.2-12.4,7-18.1,2.5
		c-3.5-2.8-5-6.6-5-11c0-0.8,0-1.9,0.1-2.7C190.8,365.8,192.9,362.1,195.3,360.2z"/>
</g>
<g>
	<path class="st2" d="M518.1,371.9c-1.1-1.5,2.3-4.5,3.4-6.1c2.1-2.8,13.2-17.1,13.4-18c-3.5-0.2-10.3,0-14.1,0
		c-4.3,4.8-4.5,5-8.2,10.4c-1.2,1.7-6.9,10.3-7.8,10.8l0-21.2c-1.5-0.2-11.3-0.1-13,0l0,47.6c1.5,0,12.5,0.4,13-0.1l0-20.9l12,16.2
		c0.7,0.9,2.9,4.9,4.4,4.9l15.1,0C536.3,394.5,520,374.5,518.1,371.9z"/>
	<path class="st2" d="M469.2,372.7c0,2.2,0.7,5.4,0.5,7.4l-4.8-8.7c-1.7-2.4-3.8-5.1-5.7-7.8c-3.9-5.3-7.6-10.3-11.5-15.7l-12.5,0
		l-0.1,47.7l12.7,0l-0.3-31.4c-0.1-0.2-0.2-0.3-0.3-0.4l0.3,0l0,0.4c1,1.5,3.8,7,4.7,8.2c1.9,2.5,3.9,5.4,5.7,7.8
		c3.7,4.9,7.5,11.1,11.3,15.4l12.6,0l0-47.7l-12.5-0.1L469.2,372.7z"/>
	<path class="st2" d="M405.8,347.9c-3.6,0-7.2,0-8.1,0l-16.3,47.8c14.7,0.3,12.5,1,13.9-4c0.5-1.6,0.8-2.9,1.3-4.5l9.2,0l9.1,0
		l2.5,8.6c1.6,0,12.4,0.2,13,0l-16.5-47.8C413.5,347.9,409.7,347.9,405.8,347.9z M405.8,377.7l-6.4,0l6.4-21.4l0-0.2l6.3,21.5
		L405.8,377.7z"/>
	<path class="st2" d="M368.7,369.8c1.3-0.9,3-1.1,4.8-2.4c4.7-3.6,3.9-11.5,0.5-15.2c-3-3.3-8.4-4.2-14-4.4c-3.4-0.1-6.8,0-9.9,0
		c-9.7,0-8.8-0.7-8.7,2c0.1,5.5,0,12,0,17.6c0,3.9-0.3,26.3,0.1,28.2l18.5,0h0c5.9-0.2,11.1-0.7,14.6-3.6c3.2-2.6,5.2-7.9,3.9-13.6
		C376.6,370.6,370.6,370.8,368.7,369.8z M360,357.5c2.5,0.4,4.5,1.6,4.5,4.7c0,2.9-1.9,4.2-4.5,4.6c-2,0.4-4.3,0.2-6.5,0.1l0-9.5
		C355.6,357.3,358,357.2,360,357.5z M365,384.4c-1.1,0.9-3,1.3-5,1.4c-1.8,0.1-3.8,0.1-5.3,0c-1.5,0-1.2-0.3-1.2-1.9
		c0.1-2.5-0.1-6.4,0.1-8.4c1.7-0.2,4.2-0.2,6.4,0c1.7,0.1,3.3,0.4,4.3,0.9C366.7,377.7,367.4,382.4,365,384.4z"/>
</g>
</svg>
