<?xml version="1.0" encoding="utf-8"?>
<!-- Generator: Adobe Illustrator 25.3.1, SVG Export Plug-In . SVG Version: 6.00 Build 0)  -->
<svg version="1.1" id="Layer_1" xmlns="http://www.w3.org/2000/svg" xmlns:xlink="http://www.w3.org/1999/xlink" x="0px" y="0px"
	 viewBox="0 0 315 158.9" style="enable-background:new 0 0 315 158.9;" xml:space="preserve">
<style type="text/css">
	.st0{fill:#F8B518;}
	.st1{fill:#F07A22;}
	.st2{fill:#F59222;}
	.st3{fill:#0A68B0;}
</style>
<path class="st0" d="M287.9,6.4c-8.1,0-11.7,1.8-16.1,6.6l-10.3,11.4L251.3,13c-4.8-4.8-8.1-6.6-16.1-6.6h-12.1
	c0,0,18.7,23.4,21.2,26c4,4.4,6.6,6.6,12.1,6.6h9.9c5.5,0,8.4-2.2,12.5-6.6c2.6-2.6,21.2-26,21.2-26H287.9z"/>
<path class="st1" d="M281.3,36.8c-5.9,1.1-9.2,2.5-12.1,7.3l-2.6,4l-2.2,4.4c-2.9,4.8-2.6,8.4-0.4,14.3c1.1,3.3,11.7,31.1,11.7,31.1
	l6.2-10.3c4-6.9,4-11,2.2-17.2l-4.4-14.6l14.7-3.3c6.6-1.5,9.9-3.7,13.9-10.6l5.9-10.6C314.3,31.3,285,36.1,281.3,36.8"/>
<path class="st2" d="M258.6,52.6l-2.6-4.4l-2.2-4c-2.9-4.8-6.2-6.2-12.1-7.3c-3.6-0.7-33.3-5.5-33.3-5.5l6.2,10.6
	c4,6.9,7.3,9.2,13.6,10.6l15,3.3l-4.7,14.6c-1.8,6.2-1.5,10.3,2.6,17.2l5.9,10.3c0,0,11-27.8,12.1-31.1
	C260.8,61,261.6,57.3,258.6,52.6"/>
<path class="st3" d="M90.8,65.4H80.1c-3.5,0-4.5,1.3-5.6,6.2c-3.9,17-8.8,43.6-18.3,57.7c0,0-2.2,3.7-5.2,3.7c-3,0-5.2-3.7-5.2-3.7
	c-9.5-14.1-16-40.7-19.9-57.7c-1.1-4.8-2.2-6.2-5.6-6.2l-10.6,0c-3.6,0-4.6,3-4.1,5.6c3.4,17.4,9.1,43.8,22.6,66.7
	c6.4,10.8,12.3,16.8,22.9,16.8c10.6,0,16.6-6,22.9-16.8C87.4,114.9,91.5,88.4,94.9,71C95.4,68.4,94.3,65.4,90.8,65.4 M123.9,65.4
	h-12c-2.1,0-3.8,1.7-3.8,3.8V149c0,2.1,1.7,3.8,3.8,3.8h12c2.1,0,3.8-1.7,3.8-3.8V69.2C127.7,67.1,126,65.4,123.9,65.4 M186.5,137.9
	h-22v-23.5h22.2c9,0,15.3,3.7,15.3,11.9C202,135.5,194.1,137.9,186.5,137.9 M164.5,80.3H184c8,0,12.3,3.1,12.3,9.7
	c0,6.6-5,10.1-11.8,10.1h-20.1L164.5,80.3z M203.8,105.3c0.7-0.4,0.7-0.3,1.4-0.8c6.3-3.5,11.1-10,11.1-17.9
	c0-15.3-12-21.2-29.4-21.2c0,0-35,0-37.2,0c-2.9,0-4.4,1.7-4.4,4.6v77.9c0,3.6,1.5,5,4.1,5c2.6,0,42,0,42,0
	c17.8,0,30.9-8.1,30.9-25.8C222.2,116.1,215.3,107.9,203.8,105.3"/>
</svg>
