<?xml version="1.0" encoding="utf-8"?>
<!-- Generator: Adobe Illustrator 25.3.1, SVG Export Plug-In . SVG Version: 6.00 Build 0)  -->
<svg version="1.1" id="Layer_1" xmlns="http://www.w3.org/2000/svg" xmlns:xlink="http://www.w3.org/1999/xlink" x="0px" y="0px"
	 viewBox="0 0 29 30" style="enable-background:new 0 0 29 30;" xml:space="preserve">
<style type="text/css">
	.st0{fill-rule:evenodd;clip-rule:evenodd;fill:url(#SVGID_1_);}
	.st1{fill-rule:evenodd;clip-rule:evenodd;fill:url(#SVGID_2_);}
</style>
<g>
	<linearGradient id="SVGID_1_" gradientUnits="userSpaceOnUse" x1="25.1268" y1="18.7159" x2="4.2046" y2="4.066">
		<stop  offset="0" style="stop-color:#006840"/>
		<stop  offset="0.4" style="stop-color:#007A48"/>
		<stop  offset="1" style="stop-color:#86C440"/>
	</linearGradient>
	<path class="st0" d="M11.5,2.7C9.7,3,9,3.9,9.1,5.1c0.1,1.7,2,4.9,2.8,6.3c1.6,2.5,3.4,4.8,5.4,6.9c1.7,1.6,2.7,2,4.5-0.4
		c1.5-2,2.9-4,4.1-6.4c0.5-1.1,1-2.3,1.4-3.6c0.5-1.5,0.3-2.9-1.2-3.9c1.5,0.7,2.1,2,2.2,3.5c0.1,1.4-0.3,2.9-0.6,4
		c-0.8,2.8-1.8,5.6-3.1,8.1c-1,1.9-2.2,4.2-3.4,5.9c-2.7,3.8-5.4,2.5-8.4,0c-2-1.6-3.8-3.7-5.4-5.9c-1.6-2.3-3.4-5.6-4.5-8.2
		C1.3,7.9,2.4,6.1,4.2,5C6.2,3.7,9.1,3,11.5,2.7z"/>
	<linearGradient id="SVGID_2_" gradientUnits="userSpaceOnUse" x1="12.0039" y1="2.5395" x2="24.3848" y2="11.2086">
		<stop  offset="0" style="stop-color:#006840"/>
		<stop  offset="0.3" style="stop-color:#007A48"/>
		<stop  offset="1" style="stop-color:#86C440"/>
	</linearGradient>
	<path class="st1" d="M11.5,10.7c2.9-0.4,10.3-0.9,12.9,0.5c0.9,0.5,0.9,1.1,0.8,1.8c0.3-0.5,0.5-1,0.8-1.5c0.5-1.1,1-2.3,1.4-3.6
		c0.5-1.5,0.3-2.9-1.2-3.9l0,0c-0.6-0.3-1.2-0.5-1.8-0.7c-1.7-0.5-3.6-0.7-5.5-0.8c-0.8-0.1-1.6-0.1-2.5,0c-1.5,0-3.2,0.1-4.8,0.3
		C9.7,3,9,3.9,9.1,5.1C9.2,6.5,10.5,9.1,11.5,10.7z"/>
</g>
</svg>
