<?xml version="1.0" encoding="utf-8"?>
<!-- Generator: Adobe Illustrator 25.3.1, SVG Export Plug-In . SVG Version: 6.00 Build 0)  -->
<svg version="1.1" id="Layer_1" xmlns="http://www.w3.org/2000/svg" xmlns:xlink="http://www.w3.org/1999/xlink" x="0px" y="0px"
	 viewBox="0 0 321.3 176.3" style="enable-background:new 0 0 321.3 176.3;" xml:space="preserve">
<style type="text/css">
	.st0{fill-rule:evenodd;clip-rule:evenodd;fill:#ED1C24;}
	.st1{fill:#008445;}
	.st2{fill-rule:evenodd;clip-rule:evenodd;fill:#008445;}
</style>
<path class="st0" d="M110.7,46.1c12.1,11.8,21.5,23,32,33.4c8.7,9.1,17.3,18.2,24.4,19.4c0.1-8.5,0.1-17,0.2-25.5
	c-10.8-10.7-21.4-24.5-32.5-27.3H110.7"/>
<path class="st0" d="M227.6,46.1c-12.1,11.8-21.5,23-32,33.4c-8.7,9.1-17.3,18.2-24.4,19.4c-0.1-8.5-0.1-17-0.2-25.5
	c10.8-10.7,21.4-24.5,32.5-27.3H227.6"/>
<path class="st0" d="M167,28.6v39.2l-14.9-15.7c-4.2-5-8.7-8.1-9.4-18.2V3.1L167,28.6z"/>
<path class="st0" d="M171,28.6v39.2l14.9-15.7c4.2-5,8.4-8.2,9.1-18.3V3L171,28.6z"/>
<path class="st0" d="M285,142.8l12.3-12.7c3.7-3.2,6.3-4.7,8-4.8h13.1L292,152.2c-2.8,2.6-4.6,3.7-7,4.1L285,142.8z"/>
<path class="st1" d="M62.5,171.7l0-68.9h20.2c7.6,0,12.6,0.3,14.9,1c3.6,1,6.6,3.3,9,6.7c2.4,3.5,3.6,7.9,3.6,13.3
	c0,4.2-1,7.5-2.3,10.4c-1.4,2.9-3.1,5.1-5.3,6.8c-2.1,1.6-4.3,2.7-6.5,3.2c-3,0.7-7.1,1.2-12.8,1.2H75l0,26.3H62.5z M74.9,113.2V135
	h6.5c5.6,0,9.3-0.4,11.2-1.2c1.9-0.8,3.3-2.1,4.4-3.8c1.1-1.7,1.6-3.7,1.6-6c0-2.8-0.7-5.1-2.2-6.9c-1.5-1.8-3.4-2.9-5.7-3.4
	c-1.7-0.3-5.1-0.5-10.2-0.5H74.9z"/>
<path class="st1" d="M118.3,102.7h26.2c9.6,0.2,18.4,5.9,18.3,16.5c0,6.2-1.3,11.4-8.5,15.1c7.4,2.7,12.4,9.7,13,17.4
	c0.7,9.3-3.7,17.9-17.9,19.7c-1.9,0.2-4.7,0.4-11.9,0.4h-19L118.3,102.7z M129.6,112.8v17.4h6.1c4.8,0,7,0,8.2-0.2
	c2.1-0.3,4.4-1.6,5.6-3.1c1.2-1.5,2-3.2,2-5.6c0-2.3-0.7-4-1.7-5.5c-1-1.5-2.9-2.3-4.9-2.6c-1.2-0.2-4.3-0.5-10.1-0.5H129.6z
	 M129.6,139.9v21.2h10.3c4.5,0,7.4-0.2,8.6-0.5c3.9-0.9,6.9-5.2,6.7-9.1c-0.4-9.5-10.7-11.5-15.1-11.6H129.6z"/>
<path class="st2" d="M203.6,148.2v10.6c-2.9,3.5-14.4,10.4-15.9-0.4l-0.1-3.7c0.4-3.7,2.7-6.2,8.9-6.6
	C198.9,148.1,201.2,148.2,203.6,148.2 M178.1,126.6v1.5c1,2.1,2,4.3,2.9,6.7c3.9-2,7.9-2.9,12-3.5c6.2-0.9,10.1,1.3,10.5,5.1v4.6
	c-11.2,0.2-18.2,1.7-23.1,5.3c-4.1,3.9-6.1,9.6-3.5,19.1c2.4,5.4,6.7,7.5,12.3,7.3c6.5-0.2,11.1-2.9,15-6.6c0.4,1.9,1,3.8,2.1,5.6
	h9.7c-0.3-1.3-0.4-3.5-0.5-5.9c0-10.2,0-18.7,0-29c-0.3-6.4-2.6-11.8-8.8-13.4C197.6,121.1,187.9,123,178.1,126.6"/>
<path class="st2" d="M236.7,171.6h-12.1v-47.9h9l1.5,0.8l0.3,4.1l0.5,0.1c5.3-3.8,11.4-6.1,18-5.9c6.5,0.5,10.3,4.2,10.5,12v37H252
	v-35.4c-1-8.1-10.7-3.2-15.4-0.5V171.6z"/>
<path class="st2" d="M299,144.9l17.8,26.8h-14.2c-3.6-6.5-8.1-13-11-19.2L299,144.9z"/>
<rect x="272.8" y="102.7" class="st2" width="12.2" height="69.2"/>
<path class="st2" d="M0,102.6h12.4c3,21.8,7.9,41,15.2,56.9c8.6-21.3,12.9-40,14.5-56.9h12.3c-3.1,22.8-8.8,45.5-20.9,69.1H21.1
	C9.5,150.3,3.7,127,0,102.6"/>
</svg>
