<?xml version="1.0" encoding="utf-8"?>
<!-- Generator: Adobe Illustrator 25.3.1, SVG Export Plug-In . SVG Version: 6.00 Build 0)  -->
<svg version="1.1" id="Layer_1" xmlns="http://www.w3.org/2000/svg" xmlns:xlink="http://www.w3.org/1999/xlink" x="0px" y="0px"
	 viewBox="0 0 2490.3 2428.9" style="enable-background:new 0 0 2490.3 2428.9;" xml:space="preserve">
<style type="text/css">
	.st0{fill:#FFFFFF;}
	.st1{fill:#161614;}
</style>
<circle class="st0" cx="1244.2" cy="1230.4" r="1224.5"/>
<path class="st1" d="M1245.2,0C557.6,0,0,557.5,0,1245.2c0,550.2,356.8,1016.9,851.5,1181.5c62.2,11.5,85.1-27,85.1-59.9
	c0-29.7-1.2-127.8-1.7-231.8c-346.4,75.3-419.5-146.9-419.5-146.9c-56.6-143.9-138.2-182.2-138.2-182.2c-113-77.3,8.5-75.7,8.5-75.7
	c125,8.8,190.9,128.3,190.9,128.3c111.1,190.4,291.3,135.3,362.3,103.5c11.2-80.5,43.4-135.4,79-166.5
	c-276.6-31.5-567.3-138.3-567.3-615.4c0-135.9,48.6-247,128.3-334.2c-12.9-31.4-55.5-158,12.1-329.5c0,0,104.6-33.5,342.5,127.6
	c99.3-27.6,205.8-41.4,311.7-41.9c105.8,0.5,212.4,14.3,311.9,41.9c237.7-161.1,342.1-127.6,342.1-127.6
	c67.8,171.5,25.1,298.2,12.2,329.5c79.8,87.2,128.1,198.3,128.1,334.2c0,478.2-291.3,583.6-568.5,614.4
	c44.7,38.6,84.4,114.4,84.4,230.6c0,166.6-1.4,300.7-1.4,341.7c0,33.1,22.4,72,85.5,59.7c494.5-164.8,850.8-631.4,850.8-1181.4
	C2490.3,557.5,1932.8,0,1245.2,0"/>
<path class="st1" d="M466.4,1773.8c-2.7,6.2-12.5,8-21.3,3.8c-9-4.1-14.1-12.5-11.2-18.7c2.7-6.4,12.4-8.1,21.4-3.9
	C464.3,1759,469.5,1767.6,466.4,1773.8 M527.6,1828.4c-5.9,5.5-17.5,3-25.4-5.8c-8.1-8.7-9.7-20.3-3.6-25.9s17.4-2.9,25.5,5.8
	S533.8,1822.9,527.6,1828.4 M569.6,1898.4c-7.6,5.3-20.1,0.3-27.8-10.8s-7.6-24.3,0.2-29.7s20-0.5,27.8,10.4
	C577.4,1879.6,577.4,1892.9,569.6,1898.4 M640.7,1979.4c-6.8,7.5-21.3,5.5-32-4.8c-10.9-10-13.9-24.3-7.1-31.8s21.5-5.4,32.2,4.8
	C644.6,1957.6,647.9,1972,640.7,1979.4 M732.5,2006.7c-3,9.7-17,14.2-31.1,10s-23.3-15.7-20.5-25.6s17-14.4,31.2-10
	C726.2,1985.4,735.4,1996.8,732.5,2006.7 M837,2018.3c0.3,10.3-11.6,18.8-26.4,19s-26.9-8-27.1-18.1c0-10.4,11.7-18.8,26.6-19.1
	S837,2008.2,837,2018.3 M939.7,2014.4c1.8,10-8.5,20.3-23.2,23c-14.5,2.6-27.8-3.6-29.7-13.5c-1.8-10.3,8.7-20.6,23.1-23.2
	C924.7,1998.1,937.8,2004.2,939.7,2014.4"/>
<path d="M962.2,1302.5c-13.3,4.8-39.7,12.7-70.8,12.7c-34.9,0-63.6-8.9-86.2-30.4c-19.8-19.2-32.1-49.9-32.1-85.8
	c0.3-68.7,47.5-119,124.8-119c26.7,0,47.5,5.8,57.5,10.6l-7.2,24.3c-12.3-5.5-27.7-9.9-51-9.9c-56.1,0-92.7,34.9-92.7,92.7
	c0,58.5,35.2,93,88.9,93c19.5,0,32.8-2.7,39.7-6.2v-68.7h-46.8v-23.9h75.9L962.2,1302.5z"/>
<path d="M1040.2,1100.8c0.3,10.3-7.2,18.5-19.2,18.5c-10.6,0-18.1-8.2-18.1-18.5c-0.3-10.1,7.7-18.5,17.8-18.8c0.3,0,0.6,0,1,0
	C1033,1082,1040.2,1090.2,1040.2,1100.8z M1006.6,1312.8v-165.5h30.1v165.5L1006.6,1312.8z"/>
<path d="M1123,1099.8v47.5h43.1v22.9H1123v89.2c0,20.5,5.8,32.1,22.6,32.1c5.9,0.1,11.7-0.6,17.4-2l1.4,22.6
	c-5.8,2.4-15,4.1-26.7,4.1c-14,0-25.3-4.4-32.5-12.7c-8.6-8.9-11.6-23.6-11.6-43.1v-90.3h-25.7v-22.9h25.7v-39.7L1123,1099.8z"/>
<path d="M1199.9,1070h30.1v103.3h0.7c5.1-8.9,12.6-16.2,21.6-21.2c9.3-5.5,19.9-8.4,30.8-8.6c22.2,0,57.8,13.7,57.8,70.8v98.5h-30.1
	v-95.1c0-26.7-9.9-49.2-38.3-49.2c-19.5,0-34.9,13.7-40.3,30.1c-1.7,4.1-2,8.6-2,14.4v99.8h-30.1L1199.9,1070z"/>
<path d="M1528.2,1267.7c0,17.1,0.3,32.2,1.4,45.1h-26.7l-1.7-27h-0.7c-7.9,13.3-25.3,30.8-54.7,30.8c-26,0-57.1-14.4-57.1-72.5
	v-96.8h30.1v91.7c0,31.5,9.6,52.7,36.9,52.7c20.2,0,34.2-14,39.7-27.4c1.8-4.9,2.8-10.1,2.7-15.4v-101.6h30.1V1267.7z"/>
<path d="M1576.7,1312.8c0.7-11.3,1.4-28,1.4-42.7V1070h29.8v104h0.7c10.6-18.5,29.8-30.4,56.4-30.4c41,0,70.1,34.2,69.8,84.5
	c0,59.2-37.3,88.6-74.2,88.6c-23.9,0-43.1-9.2-55.4-31.1h-1l-1.4,27.3L1576.7,1312.8z M1607.8,1246.5c0.1,3.7,0.6,7.3,1.4,10.9
	c5.8,20.9,23.2,35.2,45.1,35.2c31.5,0,50.3-25.7,50.3-63.6c0-33.2-17.1-61.6-49.2-61.6c-20.5,0-39.7,14-45.8,36.9
	c-1,4-1.6,8.2-1.7,12.3L1607.8,1246.5z"/>
</svg>
