<?xml version="1.0" encoding="utf-8"?>
<!-- Generator: Adobe Illustrator 25.3.1, SVG Export Plug-In . SVG Version: 6.00 Build 0)  -->
<svg version="1.1" id="Layer_1" xmlns="http://www.w3.org/2000/svg" xmlns:xlink="http://www.w3.org/1999/xlink" x="0px" y="0px"
	 viewBox="0 0 2490.3 2428.9" style="enable-background:new 0 0 2490.3 2428.9;" xml:space="preserve">
<style type="text/css">
	.st0{fill:#FFFFFF;}
	.st1{fill:#161614;}
</style>
<circle class="st0" cx="1244.2" cy="1230.4" r="1224.5"/>
<path class="st1" d="M1245.2,0C557.6,0,0,557.5,0,1245.2c0,550.2,356.8,1016.9,851.5,1181.5c62.2,11.5,85.1-27,85.1-59.9
	c0-29.7-1.2-127.8-1.7-231.8c-346.4,75.3-419.5-146.9-419.5-146.9c-56.6-143.9-138.2-182.2-138.2-182.2c-113-77.3,8.5-75.7,8.5-75.7
	c125,8.8,190.9,128.3,190.9,128.3c111.1,190.4,291.3,135.3,362.3,103.5c11.2-80.5,43.4-135.4,79-166.5
	c-276.6-31.5-567.3-138.3-567.3-615.4c0-135.9,48.6-247,128.3-334.2c-12.9-31.4-55.5-158,12.1-329.5c0,0,104.6-33.5,342.5,127.6
	c99.3-27.6,205.8-41.4,311.7-41.9c105.8,0.5,212.4,14.3,311.9,41.9c237.7-161.1,342.1-127.6,342.1-127.6
	c67.8,171.5,25.1,298.2,12.2,329.5c79.8,87.2,128.1,198.3,128.1,334.2c0,478.2-291.3,583.6-568.5,614.4
	c44.7,38.6,84.4,114.4,84.4,230.6c0,166.6-1.4,300.7-1.4,341.7c0,33.1,22.4,72,85.5,59.7c494.5-164.8,850.8-631.4,850.8-1181.4
	C2490.3,557.5,1932.8,0,1245.2,0"/>
<path class="st1" d="M466.4,1773.8c-2.7,6.2-12.5,8-21.3,3.8c-9-4.1-14.1-12.5-11.2-18.7c2.7-6.4,12.4-8.1,21.4-3.9
	C464.3,1759,469.5,1767.6,466.4,1773.8 M527.6,1828.4c-5.9,5.5-17.5,3-25.4-5.8c-8.1-8.7-9.7-20.3-3.6-25.9s17.4-2.9,25.5,5.8
	S533.8,1822.9,527.6,1828.4 M569.6,1898.4c-7.6,5.3-20.1,0.3-27.8-10.8s-7.6-24.3,0.2-29.7s20-0.5,27.8,10.4
	C577.4,1879.6,577.4,1892.9,569.6,1898.4 M640.7,1979.4c-6.8,7.5-21.3,5.5-32-4.8c-10.9-10-13.9-24.3-7.1-31.8s21.5-5.4,32.2,4.8
	C644.6,1957.6,647.9,1972,640.7,1979.4 M732.5,2006.7c-3,9.7-17,14.2-31.1,10s-23.3-15.7-20.5-25.6s17-14.4,31.2-10
	C726.2,1985.4,735.4,1996.8,732.5,2006.7 M837,2018.3c0.3,10.3-11.6,18.8-26.4,19s-26.9-8-27.1-18.1c0-10.4,11.7-18.8,26.6-19.1
	S837,2008.2,837,2018.3 M939.7,2014.4c1.8,10-8.5,20.3-23.2,23c-14.5,2.6-27.8-3.6-29.7-13.5c-1.8-10.3,8.7-20.6,23.1-23.2
	C924.7,1998.1,937.8,2004.2,939.7,2014.4"/>
</svg>
