<?xml version="1.0" encoding="utf-8"?>
<!-- Generator: Adobe Illustrator 25.3.1, SVG Export Plug-In . SVG Version: 6.00 Build 0)  -->
<svg version="1.1" id="Layer_1" xmlns="http://www.w3.org/2000/svg" xmlns:xlink="http://www.w3.org/1999/xlink" x="0px" y="0px"
	 viewBox="0 0 844.7 672.4" style="enable-background:new 0 0 844.7 672.4;" xml:space="preserve">
<style type="text/css">
	.st0{fill:url(#SVGID_1_);}
	.st1{fill:url(#SVGID_2_);}
	.st2{fill:url(#SVGID_3_);}
</style>
<linearGradient id="SVGID_1_" gradientUnits="userSpaceOnUse" x1="-234.6134" y1="1269.0408" x2="-167.8544" y2="1269.5577" gradientTransform="matrix(11.9729 0 0 -11.9729 2828.8438 15541.2217)">
	<stop  offset="0" style="stop-color:#FFB900"/>
	<stop  offset="0.338" style="stop-color:#F38000"/>
	<stop  offset="0.567" style="stop-color:#F83C72"/>
	<stop  offset="0.78" style="stop-color:#FC1CBE"/>
	<stop  offset="0.93" style="stop-color:#FE08ED"/>
	<stop  offset="1" style="stop-color:#FF00FF"/>
</linearGradient>
<path class="st0" d="M421.3,672.4c-5.7,0-11.4-1.4-16.4-4.3C362.2,643.5,46.1,445.3,34.2,439.2c-9.1-4.2-15.3-12.9-16.4-22.9v-278
	c-0.2-10.4,4.9-20.1,13.6-25.8l2.3-1.3c30.6-19,133-81.5,149.2-90.4c3.7-2.2,7.9-3.4,12.3-3.4c4,0,8,1.1,11.6,2.9
	c0,0,143.2,93.4,165.2,101.7c15.4,7.1,32.1,10.6,49.1,10.3c19.2,0.4,38.1-4.2,55-13.4c21.4-11.3,158.3-98.1,159.8-98.1
	c3.4-2.1,7.4-3.2,11.4-3.1c4.3,0,8.6,1.2,12.3,3.4c18.6,10.3,145.5,88,150.9,91.4c8.9,5.4,14.3,15.1,14.2,25.5v278
	c-1,10-7.2,18.7-16.3,22.9c-11.9,6.5-327.1,204.7-370.6,228.9C432.7,670.8,427,672.4,421.3,672.4"/>
<linearGradient id="SVGID_2_" gradientUnits="userSpaceOnUse" x1="-215.8518" y1="1247.189" x2="-147.7878" y2="1284.875" gradientTransform="matrix(11.9729 0 0 -11.9729 2828.8438 15541.2217)">
	<stop  offset="0" style="stop-color:#EE0A3F"/>
	<stop  offset="1" style="stop-color:#EE0A3F;stop-opacity:0"/>
</linearGradient>
<path class="st1" d="M419.6,672.4h1.6c5.7,0,11.4-1.4,16.3-4.3c42.7-24.7,358.6-222.9,370.6-228.9c9.1-4.2,15.4-12.9,16.4-22.9v-278
	c0.1-4.7-1-9.4-3.1-13.6L419.6,345.4V672.4z"/>
<linearGradient id="SVGID_3_" gradientUnits="userSpaceOnUse" x1="-240.0406" y1="1258.4136" x2="-206.7966" y2="1285.1935" gradientTransform="matrix(-11.8454 0 0 -11.8454 -2513.426 15382)">
	<stop  offset="0" style="stop-color:#ED6600"/>
	<stop  offset="1" style="stop-color:#F98200"/>
</linearGradient>
<path class="st2" d="M418.2,668.5h-1.6c-5.7,0-11.3-1.4-16.2-4.2C358.2,639.9,45.6,443.8,33.8,437.8c-9-4.1-15.2-12.8-16.2-22.6
	v-275c-0.1-4.7,1-9.3,3.1-13.4l397.5,218.3V668.5z"/>
</svg>
