<?xml version="1.0" encoding="utf-8"?>
<!-- Generator: Adobe Illustrator 25.3.1, SVG Export Plug-In . SVG Version: 6.00 Build 0)  -->
<svg version="1.1" id="Layer_1" xmlns="http://www.w3.org/2000/svg" xmlns:xlink="http://www.w3.org/1999/xlink" x="0px" y="0px"
	 viewBox="0 0 2799.9 2799.9" style="enable-background:new 0 0 2799.9 2799.9;" xml:space="preserve">
<style type="text/css">
	.st0{filter:url(#Adobe_OpacityMaskFilter);}
	.st1{mask:url(#SVGID_1_);fill:#0600FF;}
</style>
<path d="M830.1,1078.2c43-43,90.8-78.5,141.6-106.6c283.1-156,646-73,828,202.9l-220.2,220.1c-63.1-144-219.9-226-375.9-191.1
	c-58.7,13.1-114.5,42.5-160.1,88l-422,422.2c-128.1,128.1-128.1,336.6,0,464.7c128.1,128.1,336.6,128.1,464.7,0l130.1-130.1
	c118.3,47,245.2,65.7,370.5,56.4l-287.2,287.2c-246.2,246.2-645.3,246.2-891.5,0s-246.2-645.3,0-891.5
	C408.1,1500.3,830.1,1078.2,830.1,1078.2z M1500.3,407.9l-287.2,287.2c125.2-9.4,252.2,9.4,370.5,56.3l130-130
	c128.1-128.1,336.6-128.1,464.7,0c128.1,128.1,128.1,336.6,0,464.7l-422.1,422.1c-128.5,128.5-337.3,127.5-464.7,0
	c-29.7-29.7-55.3-66.7-71.3-103L1000,1625.3c23.1,35.1,47.2,65.4,78,96.3c79.6,79.6,181,138.9,297.7,167.1
	c151.2,36.4,313.2,16.3,452.3-60.5c50.8-28,98.5-63.5,141.6-106.6l422-422.1c246.3-246.2,246.3-645.3,0.1-891.5
	C2145.6,161.8,1746.5,161.8,1500.3,407.9z"/>
<defs>
	<filter id="Adobe_OpacityMaskFilter" filterUnits="userSpaceOnUse" x="956.4" y="145.6" width="1695.1" height="1815">
		
			<feColorMatrix  type="matrix" values="-1 0 0 0 1  0 -1 0 0 1  0 0 -1 0 1  0 0 0 1 0" color-interpolation-filters="sRGB" result="source"/>
	</filter>
</defs>
<mask maskUnits="userSpaceOnUse" x="956.4" y="145.6" width="1695.1" height="1815" id="SVGID_1_">
	<g class="st0">
		<path d="M830.1,1078.2c43-43,90.8-78.5,141.6-106.6c283.1-156,646-73,828,202.9l-220.2,220.1c-63.1-144-219.9-226-375.9-191.1
			c-58.7,13.1-114.5,42.5-160.1,88l-422,422.2c-128.1,128.1-128.1,336.6,0,464.7c128.1,128.1,336.6,128.1,464.7,0l130.1-130.1
			c118.3,47,245.2,65.7,370.5,56.4l-287.2,287.2c-246.2,246.2-645.3,246.2-891.5,0s-246.2-645.3,0-891.5
			C408.1,1500.3,830.1,1078.2,830.1,1078.2z M1500.3,407.9l-287.2,287.2c125.2-9.4,252.2,9.4,370.5,56.3l130-130
			c128.1-128.1,336.6-128.1,464.7,0c128.1,128.1,128.1,336.6,0,464.7l-422.1,422.1c-128.5,128.5-337.3,127.5-464.7,0
			c-29.7-29.7-55.3-66.7-71.3-103L1000,1625.3c23.1,35.1,47.2,65.4,78,96.3c79.6,79.6,181,138.9,297.7,167.1
			c151.2,36.4,313.2,16.3,452.3-60.5c50.8-28,98.5-63.5,141.6-106.6l422-422.1c246.3-246.2,246.3-645.3,0.1-891.5
			C2145.6,161.8,1746.5,161.8,1500.3,407.9z"/>
		<path d="M830.1,1078.2c43-43,90.8-78.5,141.6-106.6c283.1-156,646-73,828,202.9l-220.2,220.1c-63.1-144-219.9-226-375.9-191.1
			c-58.7,13.1-114.5,42.5-160.1,88l-422,422.2c-128.1,128.1-128.1,336.6,0,464.7c128.1,128.1,336.6,128.1,464.7,0l130.1-130.1
			c118.3,47,245.2,65.7,370.5,56.4l-287.2,287.2c-246.2,246.2-645.3,246.2-891.5,0s-246.2-645.3,0-891.5
			C408.1,1500.3,830.1,1078.2,830.1,1078.2z M1500.3,407.9l-287.2,287.2c125.2-9.4,252.2,9.4,370.5,56.3l130-130
			c128.1-128.1,336.6-128.1,464.7,0c128.1,128.1,128.1,336.6,0,464.7l-422.1,422.1c-128.5,128.5-337.3,127.5-464.7,0
			c-29.7-29.7-55.3-66.7-71.3-103L1000,1625.3c23.1,35.1,47.2,65.4,78,96.3c79.6,79.6,181,138.9,297.7,167.1
			c151.2,36.4,313.2,16.3,452.3-60.5c50.8-28,98.5-63.5,141.6-106.6l422-422.1c246.3-246.2,246.3-645.3,0.1-891.5
			C2145.6,161.8,1746.5,161.8,1500.3,407.9z"/>
	</g>
</mask>
<path class="st1" d="M1660.9,813.3l-451.3-77l-66-132.1l451.3-380.8l499-77.8L2501,351l150.4,443.9l-55,269.9l-278.8,397.9
	c0,0-579.7,763.1-1108,399.9s-66-502.6-66-502.6l183.4,40l190.8,99.4l245.8-117.4l216.5-260.5L1660.9,813.3z"/>
</svg>
