<?xml version="1.0" encoding="utf-8"?>
<!-- Generator: Adobe Illustrator 25.3.1, SVG Export Plug-In . SVG Version: 6.00 Build 0)  -->
<svg version="1.1" id="Layer_1" xmlns="http://www.w3.org/2000/svg" xmlns:xlink="http://www.w3.org/1999/xlink" x="0px" y="0px"
	 viewBox="0 0 150 150" style="enable-background:new 0 0 150 150;" xml:space="preserve">
<style type="text/css">
	.st0{fill:#4161AD;}
</style>
<path class="st0" d="M42,11.97c-16.53,0-30,13.47-30,30v66c0,16.53,13.47,30,30,30h66c16.53,0,30-13.47,30-30v-66
	c0-16.53-13.47-30-30-30H42z M42,17.97h66c13.29,0,24,10.71,24,24v66c0,13.29-10.71,24-24,24H42c-13.29,0-24-10.71-24-24v-66
	C18,28.68,28.71,17.97,42,17.97z M54.15,33.11c-6.14-0.27-10.79,2.07-13.72,4.87c-1.46,1.4-2.52,2.9-3.25,4.3
	c-0.72,1.4-1.18,2.55-1.18,4.05c0-0.13-0.03,0.57-0.05,1.38c-0.02,0.81-0.02,1.91,0.06,3.24c0.15,2.65,0.6,6.24,1.79,10.5
	c2.39,8.51,7.76,19.68,19.42,31.34s22.82,17.03,31.34,19.42c4.26,1.19,7.85,1.64,10.5,1.79c1.33,0.08,2.42,0.08,3.23,0.06
	c0.81-0.02,1.52-0.05,1.39-0.05c1.5,0,2.65-0.46,4.05-1.18s2.9-1.78,4.3-3.25c2.8-2.93,5.13-7.59,4.87-13.72
	c-0.13-2.93-1.75-5.52-4.15-7.05c-1.85-1.19-4.73-3.03-8.48-5.43c-4.36-2.78-9.93-2.98-14.47-0.49l0.26-0.13l-3.53,1.52l-0.26,0.18
	c-0.86,0.6-1.92,0.71-2.89,0.31c-2.71-1.13-6.92-3.36-10.85-7.28s-6.15-8.14-7.28-10.85c-0.4-0.97-0.29-2.03,0.31-2.89l0.18-0.26
	l1.52-3.53l-0.13,0.26c2.49-4.54,2.3-10.12-0.49-14.47c-2.4-3.75-4.24-6.63-5.43-8.48C59.66,34.86,57.07,33.23,54.15,33.11z
	 M53.89,39.1c0.84,0.04,1.71,0.53,2.26,1.39c1.19,1.85,3.03,4.73,5.43,8.48c1.59,2.49,1.7,5.76,0.28,8.36l-0.07,0.13l-1.45,3.38
	l0.3-0.54c-1.77,2.53-2.13,5.8-0.94,8.65c1.35,3.23,3.94,8.14,8.57,12.77s9.54,7.22,12.77,8.57c2.85,1.19,6.13,0.84,8.65-0.94
	l-0.54,0.3l3.38-1.45l0.13-0.07c2.6-1.42,5.87-1.3,8.36,0.29v-0.01c3.75,2.4,6.63,4.24,8.48,5.43c0.86,0.55,1.35,1.42,1.39,2.26
	c0.2,4.56-1.39,7.41-3.21,9.32c-0.91,0.95-1.9,1.65-2.72,2.07s-1.6,0.51-1.3,0.51c-0.55,0-0.84,0.04-1.53,0.05
	c-0.69,0.02-1.61,0.02-2.75-0.05c-2.28-0.13-5.43-0.52-9.22-1.58c-7.58-2.13-17.75-6.92-28.71-17.88S45.7,67.42,43.57,59.84
	c-1.06-3.79-1.45-6.94-1.58-9.22c-0.06-1.14-0.06-2.06-0.05-2.75c0.02-0.69,0.05-0.98,0.05-1.53c0,0.3,0.09-0.48,0.51-1.3
	c0.42-0.82,1.11-1.81,2.07-2.72C46.48,40.49,49.33,38.9,53.89,39.1z"/>
</svg>
