<?xml version="1.0" encoding="utf-8"?>
<!-- Generator: Adobe Illustrator 25.3.1, SVG Export Plug-In . SVG Version: 6.00 Build 0)  -->
<svg version="1.1" xmlns="http://www.w3.org/2000/svg" xmlns:xlink="http://www.w3.org/1999/xlink" x="0px" y="0px"
	 viewBox="0 0 1280 1280" style="enable-background:new 0 0 1280 1280;" xml:space="preserve">
<style type="text/css">
	.st0{fill:url(#SVGID_1_);}
	.st1{fill-rule:evenodd;clip-rule:evenodd;fill:#FFFFFF;}
</style>
<g id="Layer_1">
</g>
<g id="Layer_2">
	<g>
		<linearGradient id="SVGID_1_" gradientUnits="userSpaceOnUse" x1="121.8238" y1="659.5" x2="1175.8237" y2="659.5">
			<stop  offset="0" style="stop-color:#FF6633"/>
			<stop  offset="0.3304" style="stop-color:#FD5D32"/>
			<stop  offset="0.8782" style="stop-color:#F7432E"/>
			<stop  offset="0.9944" style="stop-color:#F53D2D"/>
		</linearGradient>
		<path class="st0" d="M1012.44,1180H285.21c-90.23,0-163.38-73.15-163.38-163.38V302.38c0-90.23,73.15-163.38,163.38-163.38h727.24
			c90.23,0,163.38,73.15,163.38,163.38v714.24C1175.82,1106.85,1102.67,1180,1012.44,1180z"/>
	</g>
	<g>
		<path class="st1" d="M1011,456.97c0-8.64-6.94-15.64-15.51-15.64H827.36c-4.11-109.75-82.46-197.27-178.52-197.27
			c-96.06,0-174.41,87.52-178.52,197.27H301.97c-8.45,0.16-15.26,7.1-15.26,15.64c0,0.41,0.03,0.82,0.06,1.22h-0.13l23.99,529.03
			c0,1.48,0.06,2.95,0.19,4.46c0,0.34,0.03,0.66,0.06,1l0.06,1.13l0.06,0.03c3.64,36.83,30.37,66.48,66.67,67.86l0.09,0.06h536.69
			l0.03-0.03c36.96-1,66.92-31.06,70.06-68.33l0.03-0.03l0.03-0.5c0.03-0.38,0.06-0.75,0.06-1.16c0.06-0.94,0.13-1.88,0.13-2.8
			L1011,457.78h-0.03C1011,457.5,1011,457.25,1011,456.97z M648.84,291.79c69.96,0,127.02,66.42,129.69,149.54H519.15
			C521.82,358.21,578.84,291.79,648.84,291.79z M781.58,856.06c-4.74,39.25-28.54,70.72-65.41,86.45
			c-20.54,8.79-48.08,13.53-69.9,12.03c-34.04-1.29-66.01-9.58-95.46-24.71c-10.55-5.4-26.22-16.2-38.28-26.31
			c-3.05-2.54-3.42-4.18-1.41-7.07c1.1-1.63,3.11-4.58,7.57-11.12c6.44-9.45,7.22-10.61,7.98-11.74c2.04-3.14,5.4-3.42,8.7-0.82
			c0.35,0.25,0.35,0.25,0.63,0.47c0.53,0.41,0.53,0.41,1.82,1.41c1.29,1,2.04,1.6,2.36,1.82c31.78,24.9,68.8,39.25,106.17,40.7
			c52-0.72,89.4-24.09,96.09-59.98c7.38-39.5-23.65-73.64-84.31-92.67c-19-5.93-66.95-25.15-75.8-30.33
			c-41.51-24.37-60.95-56.27-58.19-95.71c4.24-54.64,54.95-95.4,119.08-95.68c28.67-0.03,57.28,5.9,84.75,17.49
			c9.73,4.11,27.1,13.57,33.1,18.02c3.45,2.54,4.14,5.5,2.17,8.7c-1.13,1.85-2.95,4.77-6.78,10.9l-0.06,0.06
			c-5.06,8.04-5.21,8.29-6.37,10.17c-2.01,3.08-4.4,3.36-8.01,1.07c-29.42-19.75-62.02-29.71-97.88-30.43
			c-44.62,0.88-78.07,27.45-80.26,63.65c-0.6,32.69,23.93,56.52,76.87,74.74C748.2,751.71,789.33,792.19,781.58,856.06z"/>
	</g>
</g>
</svg>
