<svg id="Layer_1" data-name="Layer 1" xmlns="http://www.w3.org/2000/svg" viewBox="0 0 408.63 408.62"><defs><style>.cls-1{fill:#00b1d9;}.cls-2{fill:#fafcfa;}.cls-3{font-size:66.45px;fill:#00f900;font-family:MyriadPro-Regular, Myriad Pro;}.cls-4{letter-spacing:0.04em;}.cls-5{letter-spacing:0em;}</style></defs><path class="cls-1" d="M216.43,408.62h-24c-5.39-.64-10.8-1.19-16.18-1.95C136,401,100.34,384.88,69.82,357.94,33.89,326.21,11.41,286.72,3.14,239.38,1.8,231.7,1,223.92,0,216.18v-24c.62-5.25,1.14-10.5,1.87-15.73,5.61-40,21.2-75.69,48.05-105.91C96.45,18.22,155.12-5,224.83.91c39.8,3.38,75.87,17.77,106.63,43.34,62.35,51.83,87,118.38,73.66,198.26-6.82,40.87-26.16,75.91-55.29,105.32-30.55,30.84-67.26,50.25-110.14,57.64C232,406.8,224.18,407.59,216.43,408.62ZM123.35,127.19c-5.22,22-9.4,55.85-8,64.78H192.2V132ZM216.61,192h77.1c1.06-12.05-4.16-52.24-8.28-64.25l-68.82,4.33ZM89.69,192q4.41-34.71,8.68-68.4c-15.29-3.86-31-7.86-46.69-11.64-1-.23-2.83,1-3.45,2a175.49,175.49,0,0,0-23.67,78ZM384.4,216.42H319.13l-8.68,67.34,49.7,11.72A177.48,177.48,0,0,0,384.4,216.42Zm0-24.43a176.87,176.87,0,0,0-24.22-78.93l-49.54,11.06c2.83,22.5,5.68,45.17,8.53,67.87ZM294,216.47H216.73v58.76L285.54,280A317.3,317.3,0,0,0,294,216.47Zm-179.15-.05a313.1,313.1,0,0,0,8.41,63.06l69-4.29V216.42ZM98.34,283.28c-2.86-22.47-5.69-44.64-8.51-66.8H24.48a176.34,176.34,0,0,0,22.84,76.27c.51.91,2.61,1.59,3.75,1.35,4.67-1,9.2-2.58,13.86-3.62C76.18,288,87.48,285.61,98.34,283.28ZM216.56,107.87l62.93-3.76c-4.59-10.38-8.37-19.87-12.92-29-7.25-14.48-16.37-27.69-29-38.11-6.18-5.09-12.9-9.24-21-11.28ZM192.22,381.34v-82l-61.83,3.71c5.13,20.09,20.87,47.61,35.42,62C173.25,372.41,181.67,378.32,192.22,381.34ZM129.88,103.65l62.34,4.13V24.92C156.92,39.92,143.06,70.74,129.88,103.65ZM278.77,303.47l-62.12-4.06v81.91a54.69,54.69,0,0,0,21.53-11.84C258.35,352,269.37,328.89,278.77,303.47Zm-173,2.89L62.43,315.5c21,26.08,46,44.85,76.48,56.31C124,352.17,113.74,330.26,105.8,306.36ZM270,371.81c30.13-11.32,54.89-29.77,75.73-55.41L302.9,307C295,330.6,284.8,352.31,270,371.81Zm1-335c14.5,19.35,24.58,40.86,32.22,64.06L345.76,92C325,66.6,300.58,48.26,271,36.84ZM105.68,100.1c3.13-8,5.71-15.39,8.91-22.5s6.9-14.37,10.84-21.27c3.81-6.66,8.22-13,12.75-20A182.44,182.44,0,0,0,64.05,90.9Z" transform="translate(0)"/><rect class="cls-2" x="4.91" y="159.58" width="399.16" height="88.63" rx="16.76"/><text class="cls-3" transform="translate(55.11 225.62) scale(1.25 1)">H<tspan class="cls-4" x="43.32" y="0">T</tspan><tspan class="cls-5" x="78.87" y="0">TPS://</tspan></text></svg>