<?xml version="1.0" encoding="utf-8"?>
<!-- Generator: Adobe Illustrator 25.3.1, SVG Export Plug-In . SVG Version: 6.00 Build 0)  -->
<svg version="1.1" id="Layer_1" xmlns="http://www.w3.org/2000/svg" xmlns:xlink="http://www.w3.org/1999/xlink" x="0px" y="0px"
	 viewBox="0 0 408.6 408.6" style="enable-background:new 0 0 408.6 408.6;" xml:space="preserve">
<style type="text/css">
	.st0{fill:#00B1D9;}
</style>
<path class="st0" d="M216.4,408.6h-24c-5.4-0.6-10.8-1.2-16.2-2c-40.2-5.7-75.9-21.8-106.4-48.7c-35.9-31.7-58.4-71.2-66.7-118.6
	C1.8,231.7,1,223.9,0,216.2v-24c0.6-5.2,1.1-10.5,1.9-15.7c5.6-40,21.2-75.7,48-105.9C96.4,18.2,155.1-5,224.8,0.9
	c39.8,3.4,75.9,17.8,106.6,43.3c62.4,51.8,87,118.4,73.7,198.3c-6.8,40.9-26.2,75.9-55.3,105.3c-30.5,30.8-67.3,50.2-110.1,57.6
	C232,406.8,224.2,407.6,216.4,408.6z M123.3,127.2c-5.2,22-9.4,55.9-8,64.8h76.8v-60L123.3,127.2z M216.6,192h77.1
	c1.1-12.1-4.2-52.2-8.3-64.2l-68.8,4.3L216.6,192z M89.7,192c2.9-23.1,5.8-45.9,8.7-68.4c-15.3-3.9-31-7.9-46.7-11.6
	c-1-0.2-2.8,1-3.5,2c-13.9,23.8-22,50.5-23.7,78L89.7,192z M384.4,216.4h-65.3l-8.7,67.3l49.7,11.7
	C374.3,271.4,382.7,244.3,384.4,216.4z M384.4,192c-1.7-27.9-10-54.9-24.2-78.9l-49.5,11.1c2.8,22.5,5.7,45.2,8.5,67.9H384.4z
	 M294,216.5h-77.3v58.8l68.8,4.8C290.5,259.2,293.3,237.9,294,216.5z M114.9,216.4c0.7,21.3,3.5,42.4,8.4,63.1l69-4.3v-58.8H114.9z
	 M98.3,283.3c-2.9-22.5-5.7-44.6-8.5-66.8H24.5c1.7,26.8,9.5,52.9,22.8,76.3c0.5,0.9,2.6,1.6,3.8,1.4c4.7-1,9.2-2.6,13.9-3.6
	C76.2,288,87.5,285.6,98.3,283.3z M216.6,107.9l62.9-3.8c-4.6-10.4-8.4-19.9-12.9-29c-7.2-14.5-16.4-27.7-29-38.1
	c-6.2-5.1-12.9-9.2-21-11.3L216.6,107.9z M192.2,381.3v-82l-61.8,3.7c5.1,20.1,20.9,47.6,35.4,62
	C173.2,372.4,181.7,378.3,192.2,381.3z M129.9,103.7l62.3,4.1V24.9C156.9,39.9,143.1,70.7,129.9,103.7z M278.8,303.5l-62.1-4.1v81.9
	c8-2.3,15.3-6.3,21.5-11.8C258.4,352,269.4,328.9,278.8,303.5z M105.8,306.4l-43.3,9.1c21,26.1,46,44.9,76.5,56.3
	C124,352.2,113.7,330.3,105.8,306.4L105.8,306.4z M270,371.8c30.1-11.3,54.9-29.8,75.7-55.4l-42.8-9.4
	C295,330.6,284.8,352.3,270,371.8z M271,36.8c14.5,19.3,24.6,40.9,32.2,64.1l42.5-8.9C325,66.6,300.6,48.3,271,36.8L271,36.8z
	 M105.7,100.1c3.1-8,5.7-15.4,8.9-22.5s6.9-14.4,10.8-21.3c3.8-6.7,8.2-13,12.8-20c-29,11.6-54.5,30.3-74.1,54.6L105.7,100.1z"/>
</svg>
