<svg id="Layer_1" data-name="Layer 1" xmlns="http://www.w3.org/2000/svg" viewBox="0 0 2499.67 2372.62"><defs><style>.cls-1{fill:#fff;}.cls-2{fill:#fdfefe;}.cls-3{fill:#0180c7;}.cls-4{fill:#0172b1;}.cls-5{fill:none;stroke:#0180c7;stroke-miterlimit:54.33;stroke-width:10.87px;}</style></defs><rect class="cls-1" x="2.72" y="5.43" width="2491.52" height="2367.19" rx="328.97"/><path class="cls-2" d="M451.64,2068.76c-9.78-4.34-16.85-9.23-5.44-19,7.07-5.43,14.67-10.32,22.28-15.21,71.17-46.18,138-96.71,182-171.14,36.94-61.93,31-98.33-15.21-144-257.52-257.52-370.52-565.56-314-929.57,32.05-205.36,126-383,263-537.31,82.58-93.45,180.91-169,288.49-232,6.52-3.8,15.75-4.88,16.84-14.66-2.18-5.44-6-3.81-9.24-3.81-183.09,0-366.17-3.8-548.72,1.09C156.63,8.61,5.6,143.89,6.14,337.85c1.09,566.65,0,1133.3,0,1700.49,0,176,134.19,323.26,309.67,329.78,148.32,6,296.64,1.08,445.5.54,10.87.54,21.73,1.09,32.6,1.09h784.51c195.58,0,391.17,1.08,586.75,0,181.46,0,328.69-146.69,328.69-327.61V1721.06c0-7.61,2.72-15.76-2.17-23.9-9.78.54-13.59,8.69-19,14.12a1203.18,1203.18,0,0,1-366.17,251.54c-334.13,147.23-674.23,157.56-1019.22,39.12-29.88-10.87-62.47-12-93.44-4.35-45.64,11.41-90.73,25-135.82,38.58-132.57,41.29-267.84,59.76-406.38,32.59Zm393.88-915.44c9.24-12,14.13-19,19.56-26.08Q971.84,992,1078.59,856.14c20.65-26.07,41.29-52.7,54.33-84.21,15.21-35.85-1.09-69.54-38-82.58a146.41,146.41,0,0,0-51.07-6c-96.7-.55-193.95-.55-290.66,0a166.2,166.2,0,0,0-40.2,4.89c-30.43,7.6-48.9,38.57-41.29,69.54a58.07,58.07,0,0,0,42.38,41.83,142.75,142.75,0,0,0,40.2,4.35c58.67.54,117.89,0,176.57.54,6.52,0,14.67-4.35,19.56,5.43-4.89,6.52-9.78,13-14.67,19-84.21,106.48-167.88,213.51-252.09,320-20.64,26.62-31.51,56-16.3,88.55s46.18,38.58,77.69,40.75c25,1.63,50.53.54,76.06.54,88,0,175.49.55,263.5-.54,46.72-.54,71.71-28.8,66.82-72.26-3.8-34.23-27.16-52.15-70.62-52.7-76.61-.54-153.21,0-235.25,0Zm630.22-285.77c-67.91-59.22-142.89-63-216.23-19.56-89.1,52.16-121.7,137.46-110.83,236.33,10.32,92.36,50.52,167.88,147.23,198.85,60.3,19.56,116.26,12.49,165.7-27.71,13-10.32,16.84-8.15,26.08,3.26a66.85,66.85,0,0,0,76.06,21.19c27.16-8.15,45.09-33.14,45.09-61.39.55-108.66,1.09-217.32,0-326-.54-43.46-41.29-71.17-83.66-62.47-23.37,4.89-36.4,20.64-49.44,37.48Zm376.5,201.56c-2.18,135.83,110.28,238.51,251.54,224.38,129.84-13,214-110.29,209.71-247.74-4.35-135.82-105.4-228.72-243.94-224.38C1939.71,825.18,1847.89,929.49,1852.24,1069.11ZM1804.43,961c0-85.3.54-170,0-255.35,0-43.46-27.71-70.63-69-70.08-40.2.54-66.83,27.71-67.37,69.54-.54,25.53,0,50.52,0,76.06v431.91c0,33.69,20.65,63,47.81,70.09a69.55,69.55,0,0,0,85.84-49.44c1.63-6.52,2.72-13,2.17-20.1,1.09-84.21.55-168.42.55-252.63Z" transform="translate(-2.88 0.62)"/><path class="cls-3" d="M760.77,2369.2c-148.32,0-297.18,4.89-445.5-.54C139.79,2361.6,5.6,2214.37,5.6,2038.88c0-566.65,1.08-1133.3,0-1700.49,0-194,151.57-329.23,326-334.12C514.11-.62,697.2,3.18,880.29,3.18c3.26,0,7.61-1.63,9.24,3.8-1.09,9.78-10.87,10.87-16.84,14.67-107.58,63-205.91,138.54-288.49,232C447.83,407.93,353.3,585,321.25,791c-56.5,363.46,57,672.05,314,929.57,45.63,46.18,51.61,82,15.21,144-44,74.43-110.83,125-182,171.13-7.61,4.35-15.21,9.78-22.82,14.67-11.41,9.78-4.35,14.67,5.43,19a69.68,69.68,0,0,0,8.15,13.58c62.48,55.42,121.7,114.63,183.09,171.14,28.8,26.62,57.59,54.33,85.3,82C739,2346.39,758.05,2349.65,760.77,2369.2Z" transform="translate(-2.88 0.62)"/><path class="cls-4" d="M760.77,2369.2c-2.72-19-21.73-22.27-33.14-33.68-27.71-28.25-56.5-55.42-85.3-82-61.39-56.5-120.61-115.72-183.09-171.13a69.75,69.75,0,0,1-8.15-13.59c138.54,27.17,273.82,8.7,406.93-32.05,45.09-13.58,90.18-27.16,135.82-38.57a156.75,156.75,0,0,1,93.44,4.34c344.45,118.44,684.55,107.57,1019.22-39.11,136.36-60.31,260.77-145.06,366.17-251,5.43-5.44,9.24-13.59,19-14.13,4.89,7.61,2.17,15.76,2.17,23.91V2040c1.09,181.46-144.51,329.23-326,330.86h-2.72c-195.58,1.09-391.17,0-586.75,0H793.37q-16.3-1.62-32.6-1.63Z" transform="translate(-2.88 0.62)"/><path class="cls-3" d="M845.52,1153.32c82,0,159.19-.54,235.79,0,42.92.55,66.28,18.47,70.63,52.7,4.89,42.92-20.11,71.72-66.83,72.26-88,1.09-175.48.54-263.49.54-25.54,0-50.53,1.09-76.06-.54-31.51-1.63-62.48-8.15-77.69-40.75s-4.35-61.93,16.29-88.55C767.83,1042.49,852,935.46,936.25,829c4.89-6.52,9.78-13,14.67-19-5.43-9.23-13-4.89-19.56-5.43-58.67-.54-117.89,0-176.57-.54a197.81,197.81,0,0,1-40.2-4.35,57.12,57.12,0,0,1-42.92-68.45c4.89-20.65,21.19-37.49,41.83-42.38a166.22,166.22,0,0,1,40.21-4.89c96.7-.54,193.95-.54,290.65,0a180,180,0,0,1,51.07,6c37,12.49,52.7,46.72,38,82.58-13,31-33.68,57.59-54.32,84.21Q972.37,992.78,865.62,1127.24c-6,7.07-11.41,14.13-20.1,26.08Z" transform="translate(-2.88 0.62)"/><path class="cls-3" d="M1475.74,867.55c13-16.84,26.62-32.59,48.89-36.94,42.92-8.69,83.13,19,83.67,62.48,1.63,108.65,1.09,217.31,0,326a64.24,64.24,0,0,1-45.09,61.39c-27.17,10.32-58.14,2.18-76.06-21.19-9.24-11.41-13-13.58-26.08-3.26-49.44,40.21-105.4,47.27-165.71,27.71-96.7-31.51-136.36-107-147.23-198.84-11.41-99.42,21.73-184.18,110.83-236.33,73.89-44,148.87-40.21,216.78,19Zm-192.33,198.3c1.09,23.91,8.69,46.73,22.82,65.74,29.34,39.12,85.3,47.27,125,17.93a93.64,93.64,0,0,0,17.93-17.93c30.42-41.29,30.42-109.2,0-150.49a81.66,81.66,0,0,0-64.66-34.23C1324.7,943.07,1282.87,989.25,1283.41,1065.85Zm568.83,3.26c-4.35-139.62,87.47-243.93,217.85-247.74,138.54-4.34,239.6,88.56,243.94,224.38,4.35,137.45-79.86,234.7-209.71,247.74-141.8,14.13-254.26-88.56-252.08-224.38Zm136.36-13a120.22,120.22,0,0,0,23.36,76.06,88.6,88.6,0,0,0,125,16.3c6-4.34,10.87-9.78,15.75-15.21,31.52-41.29,31.52-110.83.55-152.12-15.21-20.65-39.12-33.68-64.65-34.23C2029.89,943.61,1988.6,988.16,1988.6,1056.07ZM1804.43,961c0,84.21.54,168.42,0,252.63a70.63,70.63,0,0,1-68.46,71.71,84.37,84.37,0,0,1-20.1-2.17c-27.16-7.06-47.81-35.86-47.81-70.09V781.17c0-25.53-.54-50.53,0-76.06.54-41.83,27.17-69,67.37-69,41.29-.54,69,26.62,69,70.09C1805,791,1804.43,876.25,1804.43,961Z" transform="translate(-2.88 0.62)"/><path class="cls-2" d="M1283.41,1065.85c-.54-76.6,41.29-122.78,100.51-119.52a83.73,83.73,0,0,1,64.65,34.77c30.43,40.75,30.43,109.2,0,150.49-29.34,39.12-85.29,47.27-125,17.93a93.36,93.36,0,0,1-17.93-17.93,122.26,122.26,0,0,1-22.28-65.74Zm705.19-9.78c0-67.36,41.29-112.46,100-109.2,25.53.55,49.44,13.58,64.65,34.23,31,41.29,31,111.37-.55,152.12-30.42,38.57-86.92,45.09-125.5,14.67a70,70,0,0,1-15.21-15.76C1995.66,1109.86,1988.06,1083.24,1988.6,1056.07Z" transform="translate(-2.88 0.62)"/><path class="cls-5" d="M361.45,4.81H2144c195,0,353.14,158.1,353.14,353.14V2004.11c0,195-158.1,353.14-353.14,353.14H361.45c-195,0-353.14-158.1-353.14-353.14V358C8.31,162.91,166.41,4.81,361.45,4.81Z" transform="translate(-2.88 0.62)"/></svg>